<svg xmlns:xlink="http://www.w3.org/1999/xlink" xmlns="http://www.w3.org/2000/svg" style="width:100%;height:100%" width="124"  height="24" ><defs><svg viewBox="0 0 124 24" id="svg11056052281"><g id="ss11056052281_1"><path d="M 0 0 L 24 0 L 24 24 L 0 24 Z" fill="#000000" fill-opacity="0"></path><path d="M 24 7 L 24.002 4 L 20 0 L 0.001 0 L 0.001 7 L 13 7 L 0 18.5 L 4.904 24 L 17.5 12.5 L 17.002 12.955 L 17.002 24 L 24.002 24 L 24.002 17.951 L 17.5 12.5 Z" fill="#0D0D17"></path></g><path d="M 38.477 18 L 36.22 18 L 36.22 7.233 L 32.423 7.233 L 32.423 5.317 L 42.267 5.317 L 42.267 7.233 L 38.479 7.233 L 38.479 18 Z M 48.831 16.893 C 48.017 17.753 46.921 18.185 45.544 18.185 C 44.167 18.185 43.071 17.754 42.257 16.893 C 41.442 16.025 41.035 14.842 41.035 13.342 C 41.035 11.848 41.445 10.667 42.265 9.8 C 43.085 8.927 44.179 8.49 45.544 8.49 C 46.915 8.49 48.008 8.927 48.822 9.8 C 49.642 10.667 50.052 11.848 50.052 13.342 C 50.052 14.842 49.645 16.025 48.832 16.892 Z M 43.874 15.636 C 44.284 16.181 44.841 16.453 45.544 16.453 C 46.247 16.453 46.804 16.181 47.214 15.636 C 47.624 15.091 47.829 14.326 47.829 13.342 C 47.829 12.363 47.624 11.602 47.214 11.057 C 46.804 10.506 46.247 10.23 45.544 10.23 C 44.847 10.23 44.29 10.506 43.874 11.057 C 43.464 11.602 43.259 12.363 43.259 13.342 C 43.259 14.326 43.464 15.091 43.874 15.636 Z M 54.94 18.149 C 53.762 18.149 52.821 17.716 52.118 16.849 C 51.421 15.981 51.072 14.809 51.072 13.333 C 51.072 11.863 51.421 10.693 52.118 9.826 C 52.821 8.959 53.762 8.526 54.94 8.526 C 55.596 8.526 56.176 8.681 56.68 8.991 C 57.19 9.301 57.57 9.721 57.822 10.248 L 57.875 10.248 L 57.875 5.318 L 60.063 5.318 L 60.063 18 L 57.92 18 L 57.92 16.41 L 57.885 16.41 C 57.629 16.941 57.222 17.384 56.715 17.684 C 56.2 17.994 55.608 18.149 54.941 18.149 Z M 55.599 10.327 C 54.896 10.327 54.339 10.6 53.929 11.145 C 53.519 11.684 53.313 12.416 53.313 13.342 C 53.313 14.273 53.516 15.009 53.92 15.548 C 54.33 16.087 54.89 16.356 55.599 16.356 C 56.29 16.356 56.844 16.084 57.259 15.539 C 57.676 14.994 57.884 14.262 57.884 13.342 C 57.884 12.428 57.676 11.698 57.26 11.153 C 56.844 10.603 56.29 10.327 55.599 10.327 Z M 69.309 16.893 C 68.495 17.753 67.399 18.185 66.022 18.185 C 64.645 18.185 63.55 17.754 62.735 16.893 C 61.921 16.025 61.514 14.842 61.514 13.342 C 61.514 11.848 61.924 10.667 62.744 9.8 C 63.564 8.927 64.657 8.49 66.022 8.49 C 67.394 8.49 68.486 8.927 69.301 9.8 C 70.121 10.667 70.531 11.848 70.531 13.342 C 70.531 14.842 70.124 16.025 69.31 16.892 Z M 64.353 15.636 C 64.763 16.181 65.319 16.453 66.023 16.453 C 66.726 16.453 67.283 16.181 67.693 15.636 C 68.103 15.091 68.308 14.326 68.308 13.342 C 68.308 12.363 68.102 11.602 67.692 11.057 C 67.282 10.506 66.726 10.23 66.022 10.23 C 65.325 10.23 64.769 10.506 64.352 11.057 C 63.942 11.602 63.737 12.363 63.737 13.342 C 63.737 14.326 63.942 15.091 64.353 15.636 Z M 74.425 18 L 72.157 18 L 72.157 5.317 L 80.243 5.317 L 80.243 7.233 L 74.425 7.233 L 74.425 10.977 L 79.742 10.977 L 79.742 12.823 L 74.425 12.823 Z M 89.938 8.684 L 89.938 18 L 87.828 18 L 87.828 16.383 L 87.784 16.383 C 87.269 17.573 86.319 18.167 84.936 18.167 C 83.923 18.167 83.117 17.859 82.519 17.244 C 81.928 16.623 81.632 15.776 81.632 14.704 L 81.632 8.684 L 83.82 8.684 L 83.82 14.264 C 83.82 14.933 83.979 15.442 84.295 15.794 C 84.617 16.145 85.085 16.321 85.701 16.321 C 86.328 16.321 86.826 16.116 87.195 15.706 C 87.565 15.296 87.749 14.751 87.749 14.071 L 87.749 8.684 Z M 91.564 11.355 C 91.564 10.5 91.909 9.809 92.601 9.281 C 93.292 8.754 94.203 8.491 95.334 8.491 C 96.424 8.491 97.309 8.76 97.988 9.299 C 98.674 9.832 99.031 10.529 99.061 11.391 L 97.021 11.391 C 96.986 10.986 96.816 10.67 96.511 10.441 C 96.207 10.213 95.8 10.099 95.29 10.099 C 94.81 10.099 94.423 10.204 94.13 10.415 C 93.837 10.62 93.69 10.893 93.69 11.232 C 93.69 11.748 94.136 12.114 95.026 12.332 L 96.688 12.7 C 97.619 12.917 98.284 13.222 98.683 13.614 C 99.081 14.007 99.28 14.549 99.28 15.24 C 99.28 16.12 98.911 16.831 98.173 17.376 C 97.435 17.915 96.477 18.185 95.299 18.185 C 94.139 18.185 93.204 17.921 92.495 17.394 C 91.792 16.86 91.402 16.148 91.326 15.258 L 93.48 15.258 C 93.544 15.686 93.737 16.014 94.06 16.242 C 94.388 16.471 94.827 16.585 95.378 16.585 C 95.911 16.585 96.33 16.485 96.635 16.286 C 96.945 16.081 97.101 15.806 97.101 15.46 C 97.111 15.212 97.004 14.974 96.811 14.818 C 96.623 14.654 96.304 14.514 95.852 14.397 L 94.157 14 C 92.429 13.596 91.564 12.714 91.564 11.354 Z M 100.73 18 L 100.73 8.684 L 102.919 8.684 L 102.919 18 Z M 102.682 7.12 C 102.453 7.346 102.142 7.469 101.82 7.462 C 101.48 7.462 101.193 7.348 100.959 7.119 C 100.73 6.898 100.603 6.593 100.607 6.275 C 100.607 5.941 100.725 5.66 100.959 5.432 C 101.185 5.201 101.497 5.073 101.82 5.08 C 102.16 5.08 102.447 5.197 102.682 5.432 C 102.922 5.66 103.042 5.942 103.042 6.275 C 103.042 6.604 102.922 6.885 102.682 7.119 Z M 112.165 16.893 C 111.351 17.753 110.255 18.185 108.878 18.185 C 107.501 18.185 106.405 17.754 105.591 16.893 C 104.776 16.025 104.369 14.842 104.369 13.342 C 104.369 11.848 104.779 10.667 105.6 9.8 C 106.42 8.927 107.513 8.49 108.878 8.49 C 110.249 8.49 111.342 8.927 112.156 9.8 C 112.977 10.667 113.387 11.848 113.387 13.342 C 113.387 14.842 112.979 16.025 112.165 16.892 Z M 107.208 15.636 C 107.618 16.181 108.175 16.453 108.878 16.453 C 109.581 16.453 110.138 16.181 110.548 15.636 C 110.958 15.091 111.163 14.326 111.163 13.342 C 111.163 12.363 110.958 11.602 110.548 11.057 C 110.138 10.506 109.581 10.23 108.878 10.23 C 108.181 10.23 107.624 10.506 107.208 11.057 C 106.798 11.602 106.593 12.363 106.593 13.342 C 106.593 14.326 106.798 15.091 107.208 15.636 Z M 114.793 18 L 114.793 8.684 L 116.894 8.684 L 116.894 10.284 L 116.938 10.284 C 117.174 9.745 117.566 9.289 118.062 8.974 C 118.561 8.664 119.161 8.508 119.864 8.508 C 120.884 8.508 121.675 8.815 122.237 9.431 C 122.806 10.046 123.09 10.896 123.09 11.98 L 123.09 18 L 120.901 18 L 120.901 12.419 C 120.901 11.751 120.743 11.241 120.427 10.889 C 120.116 10.539 119.653 10.362 119.038 10.362 C 118.411 10.362 117.91 10.567 117.535 10.977 C 117.166 11.387 116.981 11.93 116.981 12.604 L 116.981 18 Z" fill="#0D0D17"></path></svg></defs><use href="#svg11056052281"></use></svg>