<svg xmlns:xlink="http://www.w3.org/1999/xlink" xmlns="http://www.w3.org/2000/svg" style="width:100%;height:100%" width="98"  height="24" ><defs><svg viewBox="0 0 98 24" id="svg8629661645"><g id="ss8629661645_1"><path d="M 0 0 L 97.954 0 L 97.954 24 L 0 24 Z" fill="#000000" fill-opacity="0"></path><g><defs><linearGradient id="idss8629661645_3g877924492" x1="1" x2="5.551115123125783e-17" y1="0.8106503067644375" y2="0.1893496932355625"><stop offset="0" stop-color="var(--token-f832120a-e8cd-4894-b0ca-4ab77d0613e8, rgb(13, 13, 23)) /* {&quot;name&quot;:&quot;Gray-900&quot;} */" stop-opacity="1"></stop><stop offset="1" stop-color="rgba(13, 13, 23, 0)" stop-opacity="0"></stop></linearGradient><linearGradient id="idss8629661645_3g877924492" x1="1" x2="5.551115123125783e-17" y1="0.8106503067644375" y2="0.1893496932355625"><stop offset="0" stop-color="var(--token-f832120a-e8cd-4894-b0ca-4ab77d0613e8, rgb(13, 13, 23)) /* {&quot;name&quot;:&quot;Gray-900&quot;} */" stop-opacity="1"></stop><stop offset="1" stop-color="rgba(13, 13, 23, 0)" stop-opacity="0"></stop></linearGradient><linearGradient id="idss8629661645_3g877924492" x1="1" x2="5.551115123125783e-17" y1="0.8106503067644375" y2="0.1893496932355625"><stop offset="0" stop-color="var(--token-f832120a-e8cd-4894-b0ca-4ab77d0613e8, rgb(13, 13, 23)) /* {&quot;name&quot;:&quot;Gray-900&quot;} */" stop-opacity="1"></stop><stop offset="1" stop-color="rgba(13, 13, 23, 0)" stop-opacity="0"></stop></linearGradient><linearGradient id="idss8629661645_3g877924492" x1="1" x2="5.551115123125783e-17" y1="0.8106503067644375" y2="0.1893496932355625"><stop offset="0" stop-color="var(--token-f832120a-e8cd-4894-b0ca-4ab77d0613e8, rgb(13, 13, 23)) /* {&quot;name&quot;:&quot;Gray-900&quot;} */" stop-opacity="1"></stop><stop offset="1" stop-color="rgba(13, 13, 23, 0)" stop-opacity="0"></stop></linearGradient></defs><path d="M 11.974 24 L 2.001 17.326 L 10.878 11.85 L 21.55 17.923 Z" fill="url(&quot;#idss8629661645_3g877924492&quot;)"></path></g><path d="M 12.174 0 L 21.35 5.576 L 2.001 17.327 L 2.001 6.574 Z" fill="#0D0D17"></path><path d="M 83.637 8.454 L 83.637 8.673 L 86.225 8.673 L 86.225 10.948 L 83.636 10.948 L 83.636 19.611 L 81.266 19.611 L 81.266 10.948 L 79.597 10.948 L 79.597 8.673 L 81.266 8.673 L 81.266 8.454 C 81.266 6.953 81.682 5.814 82.517 5.042 C 83.365 4.254 84.601 3.912 86.225 4.014 L 86.225 6.289 C 84.499 6.128 83.636 6.85 83.636 8.454 Z M 93.743 19.961 C 92.69 22.79 90.905 24.131 88.389 23.985 L 88.389 21.776 C 89.135 21.821 89.735 21.659 90.189 21.294 C 90.642 20.945 91.014 20.391 91.307 19.632 L 91.416 19.413 L 86.765 8.673 L 89.354 8.673 L 92.624 16.614 L 95.433 8.673 L 97.957 8.673 Z M 77.592 6.595 C 77.316 6.88 76.935 7.039 76.538 7.033 C 76.128 7.033 75.771 6.887 75.463 6.595 C 75.179 6.311 75.021 5.924 75.025 5.523 C 75.025 5.115 75.171 4.765 75.463 4.473 C 75.739 4.174 76.13 4.007 76.538 4.014 C 76.963 4.014 77.321 4.167 77.614 4.473 C 77.906 4.765 78.052 5.115 78.052 5.523 C 78.052 5.932 77.899 6.289 77.592 6.595 Z M 75.354 19.611 L 75.354 8.672 L 77.723 8.672 L 77.723 19.611 Z M 72.588 4.298 L 72.588 19.611 L 70.218 19.611 L 70.218 18.035 C 69.326 19.276 68.045 19.894 66.377 19.894 C 64.87 19.894 63.583 19.34 62.515 18.233 C 61.447 17.109 60.913 15.746 60.913 14.142 C 60.913 12.522 61.447 11.159 62.515 10.05 C 63.583 8.943 64.87 8.389 66.377 8.389 C 68.045 8.389 69.326 9.001 70.218 10.226 L 70.218 4.298 Z M 69.231 16.657 C 69.889 15.987 70.218 15.148 70.218 14.142 C 70.218 13.135 69.889 12.304 69.231 11.647 C 68.572 10.977 67.746 10.641 66.751 10.641 C 65.755 10.641 64.929 10.977 64.27 11.647 C 63.612 12.305 63.283 13.135 63.283 14.142 C 63.283 15.148 63.612 15.987 64.27 16.657 C 64.93 17.313 65.755 17.642 66.751 17.642 C 67.746 17.642 68.572 17.313 69.231 16.657 Z M 53.591 19.895 C 51.983 19.895 50.614 19.341 49.488 18.233 C 48.36 17.125 47.798 15.761 47.798 14.142 C 47.798 12.523 48.361 11.16 49.488 10.051 C 50.614 8.944 51.983 8.389 53.591 8.389 C 55.216 8.389 56.583 8.943 57.696 10.05 C 58.822 11.159 59.385 12.523 59.385 14.142 C 59.385 15.761 58.821 17.124 57.695 18.233 C 56.583 19.34 55.216 19.894 53.591 19.894 Z M 51.155 16.614 C 51.814 17.27 52.625 17.598 53.591 17.598 C 54.557 17.598 55.369 17.27 56.027 16.614 C 56.686 15.958 57.015 15.134 57.015 14.142 C 57.015 13.15 56.686 12.326 56.027 11.67 C 55.369 11.014 54.557 10.686 53.591 10.686 C 52.626 10.686 51.814 11.013 51.155 11.67 C 50.497 12.326 50.168 13.15 50.168 14.142 C 50.168 15.134 50.497 15.957 51.156 16.614 Z M 31.853 11.955 C 31.853 9.709 32.614 7.828 34.135 6.31 C 35.657 4.78 37.574 4.014 39.885 4.014 C 41.276 4.014 42.555 4.342 43.726 4.998 C 44.91 5.655 45.833 6.544 46.491 7.667 L 44.296 8.935 C 43.886 8.178 43.286 7.579 42.497 7.142 C 41.721 6.69 40.85 6.463 39.885 6.463 C 38.247 6.463 36.915 6.981 35.891 8.017 C 34.882 9.053 34.377 10.364 34.377 11.955 C 34.377 13.544 34.882 14.856 35.891 15.892 C 36.915 16.927 38.247 17.444 39.885 17.444 C 40.85 17.444 41.729 17.226 42.518 16.789 C 43.309 16.337 43.901 15.731 44.296 14.973 L 46.491 16.22 C 45.846 17.343 44.932 18.24 43.748 18.91 C 42.577 19.566 41.29 19.895 39.885 19.895 C 37.574 19.895 35.657 19.136 34.135 17.62 C 32.614 16.089 31.853 14.2 31.853 11.955 Z" fill="#0D0D17"></path></g></svg></defs><use href="#svg8629661645"></use></svg>