<svg xmlns:xlink="http://www.w3.org/1999/xlink" xmlns="http://www.w3.org/2000/svg" style="width:100%;height:100%" width="98"  height="24" ><defs><svg viewBox="0 0 98 24" id="svg11820779523"><path d="M 10.012 0.75 C 9.935 0.75 9.874 0.812 9.873 0.888 L 9.873 8.802 L 2.964 4.878 C 2.932 4.86 2.895 4.855 2.859 4.865 C 2.824 4.874 2.794 4.897 2.775 4.929 L 0.778 8.385 C 0.767 8.404 0.761 8.426 0.76 8.448 C 0.759 8.468 0.763 8.489 0.77 8.508 C 0.782 8.535 0.802 8.558 0.828 8.573 L 7.748 12.484 L 11.951 10.061 C 11.994 10.036 12.046 10.036 12.089 10.061 L 16.293 12.484 L 23.175 8.573 C 23.24 8.534 23.263 8.451 23.226 8.385 L 21.226 4.929 C 21.188 4.863 21.104 4.841 21.038 4.878 L 14.146 8.808 L 14.146 0.888 C 14.146 0.851 14.132 0.816 14.106 0.79 C 14.08 0.764 14.045 0.75 14.008 0.75 L 10.013 0.75 Z" fill="#0D0D17" fill-opacity="0.5"></path><path d="M 14.145 16.173 L 21.075 20.167 C 21.106 20.186 21.144 20.191 21.179 20.182 C 21.215 20.172 21.245 20.149 21.263 20.118 L 23.262 16.662 C 23.3 16.595 23.277 16.511 23.211 16.473 L 12.088 10.062 C 12.045 10.037 11.992 10.037 11.95 10.062 L 0.828 16.473 C 0.797 16.492 0.774 16.522 0.764 16.557 C 0.755 16.592 0.76 16.63 0.778 16.662 L 2.774 20.117 C 2.792 20.148 2.822 20.171 2.858 20.181 C 2.893 20.19 2.931 20.185 2.962 20.166 L 9.872 16.183 L 9.872 23.111 C 9.872 23.188 9.934 23.25 10.011 23.25 L 14.008 23.25 C 14.084 23.25 14.146 23.189 14.146 23.112 L 14.146 19.122 L 14.145 19.109 Z M 89.186 21.69 L 91.565 16.362 L 91.979 15.678 L 94.576 8.82 L 96.991 8.82 L 91.493 21.69 Z M 91.222 17.91 L 87.491 8.82 L 89.96 8.82 L 93.08 17.063 Z M 82.627 18 L 82.627 7.974 C 82.627 6.966 82.904 6.198 83.456 5.67 C 84.021 5.13 84.862 4.86 85.98 4.86 C 86.233 4.86 86.442 4.872 86.612 4.896 C 86.78 4.92 86.942 4.956 87.098 5.004 L 87.098 6.767 C 86.994 6.727 86.885 6.703 86.774 6.696 C 86.625 6.67 86.474 6.658 86.323 6.659 C 85.842 6.659 85.482 6.779 85.242 7.019 C 85.013 7.248 84.899 7.584 84.899 8.028 L 84.899 18 Z M 80.968 10.602 L 80.968 8.82 L 86.9 8.82 L 86.9 10.602 Z M 77.306 18 L 77.306 8.82 L 79.578 8.82 L 79.578 18 Z M 77.198 7.308 L 77.198 4.806 L 79.668 4.806 L 79.668 7.308 Z M 74.168 18.18 C 73.038 18.18 72.202 17.915 71.662 17.388 C 71.132 16.848 70.868 16.044 70.868 14.976 L 70.868 6.731 L 73.158 5.886 L 73.158 15.03 C 73.158 15.474 73.278 15.803 73.518 16.02 C 73.759 16.235 74.138 16.343 74.654 16.343 C 74.858 16.343 75.038 16.332 75.195 16.308 C 75.363 16.271 75.519 16.23 75.663 16.182 L 75.663 17.946 C 75.519 18.018 75.315 18.072 75.05 18.107 C 74.759 18.158 74.463 18.182 74.168 18.18 Z M 69.101 10.602 L 69.101 8.82 L 75.663 8.82 L 75.663 10.602 Z M 59.329 18 L 59.329 8.818 L 61.546 8.818 L 61.546 10.978 L 61.6 10.978 L 61.6 18 Z M 65.782 18 L 65.782 12.203 C 65.782 11.64 65.639 11.214 65.35 10.926 C 65.062 10.638 64.641 10.494 64.088 10.494 C 63.608 10.494 63.175 10.602 62.79 10.817 C 62.419 11.031 62.113 11.343 61.906 11.718 C 61.703 12.102 61.6 12.546 61.6 13.05 L 61.366 10.853 C 61.662 10.2 62.137 9.645 62.736 9.251 C 63.337 8.843 64.058 8.639 64.899 8.639 C 65.898 8.639 66.672 8.922 67.225 9.486 C 67.789 10.049 68.072 10.799 68.072 11.735 L 68.072 18 L 65.783 18 Z M 53.163 18.179 C 52.19 18.179 51.336 17.976 50.603 17.567 C 49.893 17.17 49.306 16.584 48.908 15.875 C 48.512 15.155 48.314 14.327 48.314 13.392 C 48.314 12.455 48.512 11.634 48.908 10.926 C 49.304 10.219 49.891 9.638 50.603 9.251 C 51.324 8.843 52.166 8.639 53.127 8.639 C 54.041 8.639 54.834 8.831 55.507 9.215 C 56.173 9.58 56.718 10.13 57.076 10.799 C 57.448 11.483 57.634 12.282 57.634 13.194 C 57.636 13.495 57.612 13.796 57.562 14.094 L 49.721 14.094 L 49.721 12.51 L 55.814 12.51 L 55.346 12.942 C 55.346 12.078 55.147 11.43 54.751 10.998 C 54.354 10.566 53.801 10.35 53.092 10.35 C 52.323 10.35 51.71 10.614 51.253 11.142 C 50.809 11.67 50.586 12.431 50.586 13.427 C 50.586 14.411 50.808 15.167 51.253 15.695 C 51.71 16.212 52.353 16.47 53.183 16.47 C 53.663 16.47 54.084 16.379 54.445 16.199 C 54.805 16.019 55.07 15.743 55.238 15.371 L 57.383 15.371 C 57.082 16.235 56.572 16.919 55.851 17.423 C 55.142 17.927 54.246 18.18 53.164 18.18 Z M 44.399 18 L 44.399 15.93 L 44.579 15.966 C 44.422 16.638 44.044 17.178 43.443 17.586 C 42.842 17.982 42.127 18.18 41.298 18.18 C 40.456 18.18 39.723 17.988 39.097 17.604 C 38.485 17.208 38.01 16.656 37.674 15.948 C 37.337 15.24 37.169 14.406 37.169 13.446 C 37.169 12.474 37.344 11.628 37.692 10.908 C 38.041 10.188 38.527 9.63 39.153 9.234 C 39.789 8.838 40.529 8.64 41.37 8.64 C 42.235 8.64 42.951 8.85 43.515 9.27 C 44.08 9.678 44.428 10.248 44.56 10.98 L 44.327 10.998 L 44.327 5.04 L 46.616 5.04 L 46.616 18 Z M 41.964 16.326 C 42.697 16.326 43.281 16.074 43.714 15.57 C 44.157 15.054 44.38 14.334 44.38 13.41 C 44.38 12.486 44.158 11.772 43.714 11.268 C 43.269 10.764 42.68 10.512 41.947 10.512 C 41.226 10.512 40.643 10.77 40.198 11.286 C 39.754 11.79 39.531 12.504 39.531 13.428 C 39.531 14.352 39.753 15.066 40.198 15.57 C 40.642 16.074 41.231 16.326 41.964 16.326 Z M 33.167 18 L 33.167 5.04 L 35.511 5.04 L 35.511 18 Z" fill="#0D0D17"></path></svg></defs><use href="#svg11820779523"></use></svg>