<svg xmlns:xlink="http://www.w3.org/1999/xlink" xmlns="http://www.w3.org/2000/svg" style="width:100%;height:100%" width="100"  height="24" ><defs><svg viewBox="0 0 100 24" id="svg11551931826"><g id="ss11551931826_1"><path d="M 0 0 L 99.235 0 L 99.235 24 L 0 24 Z" fill="#000000" fill-opacity="0"></path><g id="ss11551931826_3"><path d="M 0 0 L 24.074 0 L 24.074 24 L 0 24 Z" fill="#000000" fill-opacity="0"></path><path d="M 4.585 0.375 L 0 0.375 L 0 14.169 C 0 16.694 2.053 18.74 4.585 18.74 C 4.585 21.276 6.647 23.332 9.191 23.332 L 18.342 23.332 L 18.342 18.74 L 4.586 18.74 L 4.586 0.375 Z" fill="#0D0D17"></path><path d="M 24.074 9.537 C 24.074 7.013 22.021 4.966 19.489 4.966 C 19.489 2.43 17.427 0.375 14.883 0.375 L 5.731 0.375 L 5.731 4.966 L 19.489 4.966 L 19.489 23.332 L 24.074 23.332 Z" fill="#0D0D17"></path></g><path d="M 75.883 8.755 L 78.578 8.755 L 78.578 19.628 L 75.883 19.628 Z M 78.685 4 L 78.685 6.963 L 75.755 6.963 L 75.755 4 Z M 82.19 19.628 L 82.19 10.865 L 80.222 10.865 L 80.222 8.754 L 82.19 8.754 L 82.19 7.752 C 82.19 6.558 82.518 5.647 83.174 5.022 C 83.844 4.383 84.842 4.062 86.168 4.062 C 86.468 4.062 86.717 4.077 86.917 4.106 C 87.116 4.134 87.308 4.177 87.494 4.233 L 87.494 6.323 C 87.371 6.275 87.241 6.247 87.109 6.238 C 86.933 6.208 86.753 6.193 86.574 6.195 C 86.004 6.195 85.576 6.337 85.291 6.621 C 85.02 6.892 84.884 7.29 84.884 7.816 L 84.884 8.754 L 87.259 8.754 L 87.259 10.865 L 84.885 10.865 L 84.885 19.628 Z M 89.977 24 L 92.195 19.04 L 87.966 8.754 L 90.896 8.754 L 93.633 15.978 L 96.371 8.754 L 99.238 8.754 L 92.714 24 Z M 71.275 19.628 L 68.656 15.837 L 65.906 19.628 L 62.934 19.628 L 67.315 13.968 L 63.383 8.754 L 66.442 8.754 L 68.784 12.159 L 71.19 8.754 L 74.184 8.754 L 70.137 14.044 L 74.334 19.628 Z M 52.319 17.113 C 51.849 16.26 51.614 15.279 51.614 14.17 C 51.614 13.062 51.849 12.088 52.319 11.25 C 52.788 10.413 53.485 9.725 54.33 9.267 C 55.185 8.783 56.183 8.541 57.324 8.541 C 58.407 8.541 59.349 8.769 60.147 9.223 C 60.937 9.655 61.584 10.308 62.008 11.1 C 62.45 11.91 62.671 12.856 62.671 13.936 C 62.673 14.293 62.644 14.65 62.585 15.002 L 54.354 15.002 C 54.449 15.791 54.698 16.423 55.1 16.9 C 55.642 17.512 56.405 17.816 57.388 17.816 C 57.959 17.816 58.457 17.709 58.885 17.497 C 59.306 17.291 59.64 16.944 59.827 16.516 L 62.371 16.516 C 62.015 17.539 61.409 18.35 60.554 18.947 C 59.712 19.543 58.65 19.842 57.367 19.842 C 56.212 19.842 55.2 19.601 54.33 19.117 C 53.487 18.646 52.791 17.953 52.319 17.113 Z M 59.934 13.125 C 59.866 12.354 59.638 11.757 59.249 11.334 C 58.779 10.823 58.122 10.567 57.281 10.567 C 56.369 10.567 55.642 10.879 55.1 11.505 C 54.748 11.922 54.514 12.462 54.396 13.126 L 59.933 13.126 Z M 46.913 19.628 L 46.913 4.278 L 49.607 4.278 L 49.607 19.628 Z M 44.61 4.277 L 44.61 6.474 L 36.889 6.474 L 36.889 11.271 L 44.095 11.271 L 44.095 13.468 L 36.888 13.468 L 36.888 19.628 L 34.107 19.628 L 34.107 4.277 Z" fill="#0D0D17"></path></g></svg></defs><use href="#svg11551931826"></use></svg>