<svg xmlns:xlink="http://www.w3.org/1999/xlink" xmlns="http://www.w3.org/2000/svg" style="width:100%;height:100%" width="110"  height="24" ><defs><svg viewBox="0 0 110 24" id="svg11681302074"><path d="M 23.109 0.923 L 23.109 7.509 L 9.198 7.509 C 8.205 7.509 7.4 8.313 7.4 9.306 L 7.4 22.358 L 8.359 22.358 C 8.359 14.621 14.641 8.347 22.39 8.347 L 23.109 8.347 L 23.109 14.82 C 18.606 14.82 14.835 18.46 14.835 22.957 L 14.835 23.077 L 0.924 23.077 L 0.924 15.321 C 0.924 14.69 1.174 14.084 1.619 13.635 L 13.532 1.632 C 13.982 1.178 14.596 0.923 15.235 0.923 Z M 99.559 21.966 L 102.036 16.42 L 102.467 15.708 L 105.169 8.569 L 107.684 8.569 L 101.961 21.966 Z M 101.68 18.031 L 97.796 8.57 L 100.366 8.57 L 103.612 17.151 Z M 92.726 18.125 L 92.726 7.689 C 92.726 6.64 93.014 5.84 93.59 5.291 C 94.178 4.728 95.053 4.447 96.216 4.447 C 96.479 4.447 96.697 4.46 96.873 4.485 C 97.048 4.51 97.217 4.548 97.38 4.598 L 97.38 6.434 C 97.271 6.392 97.157 6.367 97.041 6.359 C 96.886 6.333 96.73 6.32 96.573 6.322 C 96.073 6.322 95.697 6.447 95.447 6.696 C 95.209 6.933 95.09 7.283 95.09 7.746 L 95.09 18.126 L 92.726 18.126 Z M 91 10.424 L 91 8.569 L 97.173 8.569 L 97.173 10.424 Z M 87.199 18.126 L 87.199 8.569 L 89.562 8.569 L 89.562 18.126 Z M 87.085 6.995 L 87.085 4.391 L 89.655 4.391 L 89.655 6.995 Z M 83.924 18.313 C 82.748 18.313 81.878 18.038 81.315 17.489 C 80.765 16.926 80.489 16.089 80.489 14.978 L 80.489 6.395 L 82.873 5.514 L 82.873 15.032 C 82.873 15.495 82.997 15.838 83.248 16.063 C 83.497 16.288 83.892 16.4 84.43 16.4 C 84.643 16.4 84.83 16.388 84.993 16.363 C 85.169 16.326 85.33 16.282 85.481 16.231 L 85.481 18.068 C 85.33 18.142 85.118 18.199 84.843 18.236 C 84.568 18.287 84.261 18.312 83.924 18.312 Z M 78.651 10.424 L 78.651 8.569 L 85.481 8.569 L 85.481 10.424 L 78.65 10.424 Z M 68.49 18.125 L 68.49 8.569 L 70.798 8.569 L 70.798 10.818 L 70.854 10.818 L 70.854 18.125 Z M 75.208 18.125 L 75.208 12.092 C 75.208 11.505 75.057 11.062 74.757 10.762 C 74.457 10.462 74.019 10.313 73.444 10.313 C 72.943 10.313 72.493 10.425 72.093 10.65 C 71.704 10.875 71.398 11.187 71.173 11.586 C 70.96 11.986 70.854 12.449 70.854 12.973 L 70.611 10.687 C 70.918 10.008 71.413 9.429 72.036 9.018 C 72.662 8.594 73.413 8.382 74.288 8.382 C 75.326 8.382 76.133 8.675 76.709 9.262 C 77.297 9.849 77.591 10.63 77.591 11.604 L 77.591 18.125 L 75.207 18.125 Z M 62.062 18.312 C 61.049 18.312 60.161 18.1 59.398 17.675 C 58.659 17.262 58.049 16.652 57.634 15.914 C 57.221 15.164 57.015 14.303 57.015 13.328 C 57.015 12.354 57.221 11.498 57.634 10.761 C 58.046 10.026 58.657 9.421 59.398 9.018 C 60.149 8.594 61.024 8.382 62.024 8.382 C 62.975 8.382 63.801 8.582 64.502 8.982 C 65.195 9.361 65.762 9.934 66.134 10.63 C 66.522 11.342 66.716 12.173 66.716 13.122 C 66.718 13.436 66.693 13.75 66.642 14.059 L 58.478 14.059 L 58.478 12.41 L 64.82 12.41 L 64.332 12.859 C 64.332 11.96 64.126 11.286 63.713 10.836 C 63.301 10.386 62.725 10.162 61.987 10.162 C 61.187 10.162 60.549 10.436 60.074 10.986 C 59.611 11.536 59.379 12.329 59.379 13.366 C 59.379 14.391 59.61 15.177 60.073 15.726 C 60.549 16.264 61.218 16.532 62.081 16.532 C 62.582 16.532 63.019 16.438 63.394 16.251 C 63.769 16.063 64.045 15.776 64.22 15.39 L 66.453 15.39 C 66.141 16.289 65.609 17 64.858 17.526 C 64.12 18.05 63.188 18.312 62.062 18.312 Z M 50.313 22.154 C 49.051 22.154 48.012 21.879 47.199 21.33 C 46.399 20.779 45.924 20.036 45.774 19.099 L 48.025 19.099 C 48.137 19.424 48.382 19.674 48.757 19.849 C 49.145 20.036 49.644 20.13 50.258 20.13 C 51.145 20.13 51.803 19.93 52.228 19.53 C 52.653 19.143 52.866 18.55 52.866 17.75 L 52.866 15.69 L 53.035 15.726 C 52.885 16.426 52.503 16.988 51.89 17.413 C 51.278 17.826 50.527 18.031 49.639 18.031 C 48.788 18.031 48.044 17.831 47.405 17.431 C 46.781 17.032 46.292 16.476 45.942 15.764 C 45.592 15.04 45.417 14.196 45.417 13.235 C 45.417 12.26 45.598 11.411 45.961 10.686 C 46.324 9.962 46.83 9.4 47.481 9 C 48.144 8.587 48.914 8.382 49.788 8.382 C 50.69 8.382 51.427 8.6 52.003 9.037 C 52.591 9.462 52.953 10.055 53.091 10.818 L 52.941 10.836 L 52.941 8.569 L 55.249 8.569 L 55.249 17.731 C 55.249 19.093 54.805 20.167 53.918 20.955 C 53.04 21.754 51.84 22.154 50.313 22.154 Z M 50.408 16.158 C 51.171 16.158 51.778 15.902 52.229 15.39 C 52.691 14.864 52.922 14.134 52.922 13.197 C 52.922 12.26 52.691 11.536 52.229 11.023 C 51.765 10.511 51.152 10.255 50.389 10.255 C 49.639 10.255 49.032 10.518 48.569 11.043 C 48.107 11.554 47.875 12.28 47.875 13.216 C 47.875 14.153 48.106 14.877 48.569 15.39 C 49.031 15.902 49.645 16.158 50.409 16.158 Z M 32.042 18.126 L 37.015 4.635 L 39.117 4.635 L 34.444 18.126 Z M 42.231 18.126 L 37.577 4.634 L 39.791 4.634 L 44.746 18.125 L 42.232 18.125 Z M 34.613 12.822 L 42.006 12.822 L 42.006 14.771 L 34.613 14.771 Z" fill="#0D0D17"></path></svg></defs><use href="#svg11681302074"></use></svg>