<svg xmlns:xlink="http://www.w3.org/1999/xlink" xmlns="http://www.w3.org/2000/svg" style="width:100%;height:100%" width="101"  height="24" ><defs><svg viewBox="0 0 101 24" id="svg9402678112"><g id="ss9402678112_1"><path d="M 0 0 L 24.092 0 L 24.092 24 L 0 24 Z" fill="#000000" fill-opacity="0"></path><path d="M 5.019 0 L 5.019 15.5 L 17.065 20 L 12.548 24 L 0 19.039 L 0 4 Z" fill="#0D0D17"></path><path d="M 19.072 24 L 19.072 8.5 L 7.026 4 L 11.544 0 L 24.092 4.961 L 24.092 20 Z" fill="#0D0D17"></path></g><path d="M 91.813 22.84 L 94.403 17.052 L 94.855 16.31 L 97.681 8.861 L 100.311 8.861 L 94.325 22.84 Z M 94.03 18.734 L 89.968 8.861 L 92.657 8.861 L 96.052 17.814 Z M 84.664 18.831 L 84.664 7.941 C 84.664 6.846 84.965 6.012 85.567 5.439 C 86.182 4.852 87.098 4.558 88.315 4.558 C 88.59 4.558 88.819 4.572 89.002 4.598 C 89.185 4.624 89.362 4.662 89.531 4.715 L 89.531 6.631 C 89.419 6.587 89.3 6.561 89.179 6.553 C 89.017 6.525 88.853 6.512 88.688 6.514 C 88.165 6.514 87.772 6.643 87.51 6.905 C 87.261 7.152 87.137 7.518 87.137 7.999 L 87.137 18.831 L 84.665 18.831 Z M 82.859 10.795 L 82.859 8.86 L 89.316 8.86 L 89.316 10.795 Z M 78.879 18.831 L 78.879 8.861 L 81.352 8.861 L 81.352 18.833 L 78.879 18.833 Z M 78.761 7.218 L 78.761 4.499 L 81.45 4.499 L 81.45 7.217 L 78.761 7.217 Z M 73.833 18.831 L 73.833 16.583 L 74.029 16.622 C 73.859 17.351 73.446 17.938 72.792 18.381 C 72.138 18.811 71.36 19.027 70.457 19.027 C 69.541 19.027 68.743 18.818 68.063 18.402 C 67.396 17.971 66.879 17.371 66.513 16.602 C 66.146 15.834 65.962 14.928 65.962 13.885 C 65.962 12.829 66.152 11.91 66.532 11.128 C 66.912 10.346 67.441 9.74 68.121 9.309 C 68.815 8.88 69.62 8.665 70.536 8.665 C 71.477 8.665 72.256 8.893 72.871 9.348 C 73.486 9.792 73.865 10.411 74.01 11.206 L 73.754 11.226 L 73.754 4.755 L 76.247 4.755 L 76.247 18.831 Z M 71.183 17.012 C 71.981 17.012 72.616 16.739 73.087 16.192 C 73.572 15.631 73.813 14.85 73.813 13.845 C 73.813 12.842 73.572 12.066 73.087 11.519 C 72.603 10.972 71.962 10.698 71.163 10.698 C 70.378 10.698 69.744 10.978 69.26 11.538 C 68.775 12.086 68.534 12.861 68.534 13.865 C 68.534 14.869 68.775 15.644 69.26 16.192 C 69.744 16.739 70.385 17.013 71.184 17.013 Z M 54.67 18.831 L 54.67 8.862 L 57.084 8.862 L 57.084 11.207 L 57.143 11.207 L 57.143 18.832 L 54.67 18.832 Z M 61.696 18.831 L 61.696 12.535 C 61.696 11.923 61.539 11.461 61.225 11.148 C 60.911 10.834 60.453 10.678 59.851 10.678 C 59.328 10.678 58.857 10.795 58.438 11.031 C 58.034 11.263 57.702 11.601 57.476 12.008 C 57.254 12.425 57.143 12.907 57.143 13.455 L 56.887 11.07 C 57.228 10.34 57.725 9.759 58.379 9.33 C 59.033 8.886 59.818 8.665 60.734 8.665 C 61.82 8.665 62.664 8.971 63.266 9.583 C 63.881 10.196 64.189 11.01 64.189 12.028 L 64.189 18.831 Z M 49.974 18.831 C 49.904 18.548 49.851 18.261 49.816 17.971 C 49.788 17.594 49.775 17.215 49.778 16.837 L 49.699 16.837 L 49.699 12.106 C 49.699 11.585 49.548 11.193 49.248 10.933 C 48.96 10.659 48.515 10.522 47.914 10.522 C 47.325 10.522 46.854 10.633 46.5 10.854 C 46.166 11.054 45.937 11.39 45.873 11.773 L 43.498 11.773 C 43.602 10.848 44.047 10.098 44.832 9.525 C 45.617 8.951 46.67 8.665 47.992 8.665 C 49.366 8.665 50.405 8.978 51.112 9.603 C 51.819 10.216 52.173 11.121 52.173 12.32 L 52.173 16.837 C 52.173 17.151 52.191 17.469 52.231 17.795 C 52.284 18.121 52.355 18.466 52.447 18.832 L 49.974 18.832 Z M 46.5 19.027 C 45.493 19.027 44.688 18.779 44.086 18.284 C 43.498 17.776 43.203 17.098 43.203 16.251 C 43.203 15.338 43.537 14.615 44.204 14.081 C 44.871 13.545 45.813 13.188 47.03 13.005 L 50.151 12.536 L 50.151 14.1 L 47.442 14.511 C 46.854 14.602 46.408 14.765 46.108 15 C 45.821 15.234 45.676 15.56 45.676 15.977 C 45.676 16.355 45.813 16.648 46.088 16.857 C 46.363 17.052 46.743 17.15 47.226 17.15 C 47.933 17.15 48.522 16.974 48.992 16.622 C 49.464 16.27 49.699 15.84 49.699 15.331 L 49.974 16.837 C 49.712 17.554 49.281 18.102 48.678 18.48 C 48.09 18.845 47.363 19.027 46.501 19.027 Z M 32.554 18.831 L 32.554 4.754 L 35.105 4.754 L 35.105 18.831 Z M 33.771 18.831 L 33.771 16.818 L 42.053 16.818 L 42.053 18.831 Z" fill="#0D0D17"></path></svg></defs><use href="#svg9402678112"></use></svg>