<svg xmlns:xlink="http://www.w3.org/1999/xlink" xmlns="http://www.w3.org/2000/svg" style="width:100%;height:100%" width="141"  height="24" ><defs><svg viewBox="0 0 141 24" id="svg8828163183"><path d="M 43.69 4 L 43.69 6.258 L 35.791 6.258 L 35.791 11.188 L 43.165 11.188 L 43.165 13.446 L 35.791 13.446 L 35.791 19.781 L 32.946 19.781 L 32.946 4 Z M 46.048 19.781 L 46.048 4 L 48.805 4 L 48.805 19.781 Z M 84.703 17.861 L 84.703 19.781 L 82.012 19.781 L 82.012 4 L 84.77 4 L 84.77 10.471 C 85.01 9.917 85.405 9.443 85.907 9.106 C 86.622 8.624 87.504 8.383 88.554 8.383 C 89.547 8.383 90.408 8.624 91.137 9.106 C 91.881 9.574 92.457 10.239 92.866 11.102 C 93.274 11.963 93.478 12.978 93.478 14.148 C 93.478 15.331 93.266 16.362 92.843 17.238 C 92.42 18.114 91.83 18.794 91.071 19.277 C 90.313 19.759 89.415 19.999 88.38 19.999 C 87.315 19.999 86.439 19.751 85.754 19.254 C 85.28 18.897 84.916 18.414 84.703 17.861 Z M 89.802 16.8 C 90.328 16.171 90.59 15.295 90.59 14.169 C 90.59 13.045 90.32 12.175 89.78 11.562 C 89.255 10.948 88.548 10.641 87.658 10.641 C 86.782 10.641 86.075 10.955 85.535 11.584 C 84.995 12.198 84.725 13.066 84.725 14.191 C 84.725 15.317 84.995 16.186 85.535 16.8 C 86.075 17.414 86.79 17.72 87.68 17.72 C 88.569 17.72 89.277 17.413 89.802 16.799 Z M 137.203 19.781 L 137.203 17.945 C 136.958 18.473 136.571 18.917 136.043 19.277 C 135.314 19.758 134.446 19.999 133.439 19.999 C 132.418 19.999 131.528 19.766 130.77 19.298 C 130.026 18.816 129.449 18.144 129.041 17.282 C 128.633 16.42 128.428 15.404 128.428 14.236 C 128.428 13.051 128.64 12.021 129.063 11.145 C 129.486 10.268 130.077 9.589 130.835 9.106 C 131.608 8.624 132.506 8.383 133.527 8.383 C 134.578 8.383 135.445 8.639 136.13 9.15 C 136.564 9.463 136.892 9.857 137.116 10.327 L 137.116 4 L 139.894 4 L 139.894 19.781 Z M 134.249 17.742 C 135.139 17.742 135.847 17.435 136.372 16.821 C 136.911 16.194 137.181 15.317 137.181 14.191 C 137.181 13.066 136.911 12.198 136.372 11.584 C 135.832 10.97 135.117 10.662 134.227 10.662 C 133.352 10.662 132.644 10.976 132.104 11.605 C 131.565 12.219 131.295 13.088 131.295 14.214 C 131.295 15.339 131.565 16.207 132.104 16.821 C 132.644 17.435 133.359 17.742 134.249 17.742 Z M 120.968 19.781 L 120.968 8.602 L 123.66 8.602 L 123.66 10.658 C 123.926 10.016 124.297 9.507 124.776 9.128 C 125.402 8.632 126.154 8.383 127.029 8.383 C 127.336 8.383 127.554 8.413 127.686 8.471 L 127.686 11.079 C 127.587 11.046 127.483 11.031 127.379 11.035 C 127.219 11.019 127.059 11.012 126.898 11.013 C 125.833 11.013 125.038 11.247 124.513 11.715 C 123.988 12.182 123.725 12.928 123.725 13.95 L 123.725 19.781 Z M 66.808 19.781 L 63.395 8.602 L 66.283 8.602 L 68.208 16.628 L 70.572 8.602 L 73.088 8.602 L 75.483 16.59 L 77.378 8.602 L 80.2 8.602 L 76.787 19.781 L 74.205 19.781 L 71.798 11.835 L 69.39 19.781 Z M 51.6 17.194 C 51.106 16.303 50.857 15.287 50.857 14.148 C 50.857 13.008 51.105 12.007 51.6 11.145 C 52.089 10.29 52.81 9.59 53.68 9.128 C 54.585 8.632 55.627 8.383 56.809 8.383 C 58.004 8.383 59.048 8.632 59.938 9.128 C 60.807 9.591 61.528 10.29 62.017 11.145 C 62.512 12.006 62.761 13.008 62.761 14.148 C 62.761 15.287 62.505 16.303 61.995 17.194 C 61.508 18.062 60.787 18.776 59.916 19.254 C 59.026 19.751 57.991 19.999 56.809 19.999 C 55.627 19.999 54.585 19.751 53.68 19.254 C 52.808 18.776 52.088 18.062 51.6 17.194 Z M 59.478 16.076 C 59.741 15.522 59.872 14.871 59.872 14.126 C 59.872 13.03 59.58 12.167 58.997 11.539 C 58.428 10.911 57.698 10.597 56.809 10.597 C 55.919 10.597 55.183 10.912 54.599 11.539 C 54.015 12.168 53.724 13.03 53.724 14.126 C 53.724 14.871 53.855 15.522 54.117 16.076 C 54.395 16.617 54.76 17.041 55.211 17.347 C 55.678 17.64 56.211 17.786 56.808 17.786 C 57.365 17.794 57.911 17.641 58.384 17.347 C 58.858 17.032 59.237 16.592 59.478 16.076 Z M 0.922 0.923 L 11.483 0.923 L 11.483 11.502 C 5.651 11.502 0.922 6.766 0.922 0.923 Z M 0.922 12.498 L 11.483 12.498 L 11.483 23.077 C 5.651 23.077 0.922 18.341 0.922 12.498 Z M 23.039 0.923 C 23.039 3.844 20.675 6.212 17.759 6.212 C 14.842 6.212 12.478 3.844 12.478 0.923 Z M 23.039 12.498 C 23.039 15.42 20.675 17.788 17.759 17.788 C 14.842 17.788 12.478 15.42 12.478 12.498 Z M 115.511 18.035 C 115.231 18.589 114.806 19.055 114.281 19.386 C 113.624 19.795 112.815 19.999 111.852 19.999 C 110.728 19.999 109.832 19.722 109.16 19.167 C 108.504 18.597 108.176 17.838 108.176 16.888 C 108.176 15.865 108.548 15.054 109.292 14.454 C 110.035 13.855 111.086 13.454 112.442 13.249 L 115.418 12.799 L 115.418 12.241 C 115.418 11.657 115.25 11.218 114.915 10.926 C 114.594 10.619 114.098 10.466 113.428 10.466 C 112.771 10.466 112.245 10.59 111.852 10.838 C 111.479 11.062 111.223 11.438 111.151 11.868 L 108.504 11.868 C 108.621 10.83 109.116 9.99 109.992 9.348 C 110.867 8.705 112.042 8.383 113.515 8.383 C 115.047 8.383 116.206 8.734 116.994 9.436 C 117.782 10.122 118.176 11.138 118.176 12.482 L 118.176 17.545 C 118.176 17.904 118.198 18.262 118.241 18.618 C 118.3 18.984 118.38 19.372 118.481 19.781 L 115.725 19.781 C 115.652 19.488 115.593 19.167 115.55 18.816 C 115.531 18.587 115.518 18.327 115.511 18.035 Z M 100.829 19.999 C 99.647 19.999 98.604 19.751 97.7 19.254 C 96.828 18.776 96.108 18.062 95.621 17.194 C 95.125 16.303 94.877 15.287 94.877 14.148 C 94.877 13.008 95.125 12.006 95.621 11.145 C 96.11 10.29 96.831 9.59 97.7 9.128 C 98.604 8.632 99.647 8.383 100.829 8.383 C 102.025 8.383 103.068 8.632 103.958 9.128 C 104.827 9.591 105.548 10.29 106.038 11.145 C 106.533 12.007 106.781 13.008 106.781 14.148 C 106.781 15.287 106.526 16.303 106.015 17.194 C 105.528 18.062 104.808 18.776 103.936 19.254 C 103.046 19.751 102.011 19.999 100.829 19.999 Z M 100.829 17.786 C 101.385 17.793 101.932 17.641 102.405 17.347 C 102.879 17.032 103.257 16.592 103.499 16.076 C 103.761 15.522 103.893 14.871 103.893 14.126 C 103.893 13.03 103.601 12.168 103.018 11.539 C 102.448 10.912 101.719 10.597 100.829 10.597 C 99.94 10.597 99.202 10.911 98.619 11.539 C 98.036 12.167 97.743 13.03 97.743 14.126 C 97.743 14.871 97.875 15.522 98.138 16.076 C 98.415 16.617 98.779 17.041 99.232 17.347 C 99.699 17.64 100.231 17.786 100.829 17.786 Z M 115.418 15.858 L 115.418 14.553 L 112.902 14.936 C 112.245 15.039 111.749 15.222 111.414 15.485 C 111.093 15.748 110.933 16.112 110.933 16.58 C 110.933 17.005 111.086 17.333 111.392 17.567 C 111.699 17.786 112.122 17.896 112.662 17.896 C 113.449 17.896 114.106 17.698 114.63 17.304 C 115.156 16.909 115.418 16.427 115.418 15.858 Z" fill="#0D0D17"></path></svg></defs><use href="#svg8828163183"></use></svg>