<svg xmlns:xlink="http://www.w3.org/1999/xlink" xmlns="http://www.w3.org/2000/svg" style="width:100%;height:100%" width="104"  height="24" ><defs><svg viewBox="0 0 104 24" id="svg11346233785"><g id="ss11346233785_1"><path d="M 0 0 L 23.929 0 L 23.929 24 L 0 24 Z" fill="#000000" fill-opacity="0"></path><path d="M 7.523 2.151 C 8.257 0.348 10.806 0.362 11.521 2.174 L 15.479 12.2 L 20.684 9.151 C 22.361 8.169 24.375 9.74 23.842 11.616 L 21.103 21.24 C 20.545 23.2 17.845 23.37 17.048 21.495 L 14.456 15.391 L 3.359 22.818 C 1.592 24.002 -0.635 22.172 0.169 20.198 Z M 13.615 13.354 L 9.517 2.97 L 2.163 21.018 L 13.614 13.354 Z M 16.302 14.223 L 19.03 20.646 L 21.769 11.021 Z" fill="#0D0D17"></path></g><path d="M 100.764 18.39 L 100.764 5.43 L 103.097 5.43 L 103.097 18.39 Z M 86.995 18.39 L 91.751 5.43 L 93.761 5.43 L 89.292 18.39 Z M 96.74 18.39 L 92.289 5.43 L 94.407 5.43 L 99.145 18.39 Z M 89.454 13.296 L 96.525 13.296 L 96.525 15.168 L 89.454 15.168 Z M 78.856 18.57 C 77.588 18.57 76.577 18.306 75.823 17.778 C 75.069 17.238 74.656 16.495 74.585 15.546 L 76.649 15.546 C 76.709 16.014 76.93 16.368 77.312 16.608 C 77.695 16.848 78.21 16.968 78.856 16.968 C 79.442 16.968 79.879 16.878 80.167 16.698 C 80.466 16.506 80.615 16.237 80.615 15.889 C 80.623 15.658 80.532 15.435 80.363 15.277 C 80.196 15.109 79.879 14.97 79.413 14.862 L 77.94 14.521 C 76.936 14.305 76.188 13.969 75.697 13.513 C 75.219 13.045 74.979 12.462 74.979 11.766 C 74.979 10.914 75.302 10.249 75.949 9.769 C 76.607 9.277 77.51 9.03 78.659 9.03 C 79.796 9.03 80.705 9.277 81.387 9.769 C 82.081 10.249 82.464 10.914 82.536 11.766 L 80.471 11.766 C 80.422 11.41 80.209 11.097 79.897 10.921 C 79.586 10.729 79.155 10.633 78.605 10.633 C 78.09 10.633 77.702 10.716 77.439 10.885 C 77.184 11.024 77.031 11.296 77.043 11.586 C 77.043 11.826 77.145 12.03 77.348 12.198 C 77.552 12.355 77.893 12.493 78.372 12.613 L 79.951 12.973 C 80.848 13.176 81.525 13.53 81.979 14.034 C 82.445 14.538 82.678 15.133 82.678 15.816 C 82.678 16.693 82.344 17.37 81.674 17.85 C 81.004 18.33 80.064 18.57 78.856 18.57 Z M 67.572 18.57 C 66.938 18.57 66.388 18.438 65.921 18.174 C 65.474 17.906 65.108 17.519 64.863 17.058 C 64.624 16.59 64.504 16.062 64.504 15.474 L 64.504 9.21 L 66.765 9.21 L 66.765 15.006 C 66.765 15.57 66.903 15.996 67.178 16.284 C 67.465 16.572 67.866 16.716 68.38 16.716 C 69.245 16.738 70.047 16.263 70.445 15.492 C 70.659 15.096 70.767 14.652 70.767 14.16 L 71.001 16.356 C 70.714 17.013 70.247 17.575 69.654 17.976 C 69.068 18.372 68.375 18.57 67.572 18.57 Z M 70.84 18.39 L 70.84 16.23 L 70.767 16.23 L 70.767 9.211 L 73.047 9.211 L 73.047 18.39 L 70.839 18.39 Z M 60.776 18.39 L 57.957 14.286 L 54.153 9.21 L 56.72 9.21 L 59.268 12.936 L 63.342 18.39 L 60.776 18.39 Z M 58.137 12.864 L 60.704 9.21 L 63.216 9.21 L 59.231 14.448 Z M 59.034 14.556 L 56.27 18.39 L 53.776 18.39 L 57.957 12.954 Z M 49.105 18.57 C 48.136 18.57 47.287 18.367 46.556 17.958 C 45.849 17.561 45.266 16.976 44.87 16.266 C 44.474 15.546 44.277 14.718 44.277 13.783 C 44.277 12.846 44.475 12.025 44.87 11.317 C 45.263 10.61 45.848 10.03 46.557 9.642 C 47.275 9.234 48.112 9.03 49.07 9.03 C 49.979 9.03 50.769 9.222 51.439 9.606 C 52.101 9.971 52.644 10.522 53 11.19 C 53.37 11.874 53.556 12.673 53.556 13.585 C 53.558 13.886 53.534 14.188 53.485 14.485 L 45.677 14.485 L 45.677 12.901 L 51.743 12.901 L 51.277 13.333 C 51.277 12.469 51.08 11.821 50.685 11.389 C 50.289 10.957 49.74 10.741 49.034 10.741 C 48.268 10.741 47.658 11.005 47.202 11.533 C 46.76 12.061 46.54 12.822 46.54 13.818 C 46.54 14.802 46.76 15.558 47.202 16.086 C 47.658 16.603 48.297 16.861 49.123 16.861 C 49.602 16.861 50.02 16.77 50.379 16.59 C 50.738 16.41 51.001 16.134 51.169 15.762 L 53.304 15.762 C 53.006 16.626 52.497 17.31 51.779 17.814 C 51.073 18.318 50.182 18.571 49.105 18.571 Z M 31.903 18.39 L 31.903 5.43 L 34.793 5.43 L 41.092 16.698 L 40.428 16.86 L 40.428 5.43 L 42.69 5.43 L 42.69 18.39 L 39.8 18.39 L 33.501 7.122 L 34.164 6.96 L 34.164 18.39 Z" fill="#0D0D17"></path></svg></defs><use href="#svg11346233785"></use></svg>