<?xml version="1.0" standalone="no"?>
<!DOCTYPE svg PUBLIC "-//W3C//DTD SVG 20010904//EN"
 "http://www.w3.org/TR/2001/REC-SVG-20010904/DTD/svg10.dtd">
<svg version="1.0" xmlns="http://www.w3.org/2000/svg"
 width="440.000000pt" height="440.000000pt" viewBox="0 0 440.000000 440.000000"
 preserveAspectRatio="xMidYMid meet">

<g transform="translate(0.000000,440.000000) scale(0.100000,-0.100000)"
fill="#000000" stroke="none">
<path d="M1926 3639 c-31 -28 -60 -68 -86 -120 -22 -42 -44 -80 -49 -84 -6 -3
-37 4 -70 15 -33 11 -82 20 -108 19 -46 -1 -47 -1 -18 -11 41 -15 42 -16 17
-34 -31 -21 -28 -44 6 -45 15 0 0 -6 -34 -14 -61 -13 -118 -37 -128 -54 -3 -4
13 1 36 12 57 28 147 34 193 13 35 -17 43 -30 25 -41 -5 -3 -17 -31 -26 -61
-27 -95 -187 -312 -275 -375 -25 -17 -34 -19 -69 -9 -22 6 -38 15 -35 20 3 6
-5 15 -19 22 -36 16 -34 66 5 165 36 93 69 151 116 207 30 35 29 34 -9 -6 -25
-25 -62 -79 -83 -120 -49 -93 -60 -104 -80 -85 -8 9 -24 13 -35 10 -18 -5 -20
-1 -20 43 l0 49 -31 -90 c-17 -49 -57 -146 -90 -215 -71 -147 -84 -202 -81
-330 1 -52 -1 -102 -4 -110 -14 -38 -11 -137 7 -189 10 -30 16 -58 13 -62 -3
-5 -1 -9 3 -9 8 0 44 -54 43 -65 0 -3 6 -15 14 -28 8 -12 35 -76 61 -142 25
-66 50 -131 56 -143 16 -39 48 -136 52 -163 3 -13 8 -40 12 -59 5 -31 2 -39
-27 -67 -57 -54 -127 -83 -202 -83 -41 0 -79 6 -97 16 -42 21 -49 10 -7 -13
26 -14 59 -18 154 -20 103 -2 130 -6 190 -29 56 -22 87 -27 164 -28 98 -1 100
0 165 48 9 7 31 -11 76 -59 190 -204 406 -335 552 -335 152 0 403 124 590 291
54 48 61 51 118 54 33 2 89 13 123 25 l63 23 66 -27 c47 -19 84 -26 130 -26
36 0 88 -5 116 -12 68 -15 167 3 260 47 74 36 98 55 35 29 -42 -18 -144 -20
-201 -5 -52 14 -118 62 -140 103 -23 43 -24 217 -1 298 16 58 19 60 110 73 32
5 40 2 50 -16 7 -12 13 -24 13 -27 1 -3 8 -18 15 -34 l14 -29 12 59 c6 33 21
96 33 142 12 45 21 92 18 105 -3 22 -3 22 -15 -3 -6 -14 -24 -40 -39 -58 l-28
-32 -30 61 c-16 33 -54 89 -85 122 -111 123 -117 140 -78 212 27 51 30 80 14
130 -8 22 -17 72 -21 110 -7 63 -9 66 -16 36 -7 -33 -26 -76 -42 -96 -4 -5
-19 -30 -31 -55 -18 -34 -30 -45 -47 -45 -21 0 -24 5 -27 41 -3 38 0 43 38 67
22 15 40 30 40 33 0 4 -6 2 -12 -4 -21 -16 -126 -34 -161 -27 -79 16 -221 70
-274 104 -32 21 -77 58 -100 83 -66 72 -84 118 -99 248 -23 195 -22 190 -78
248 -64 66 -131 111 -220 147 -76 30 -210 55 -296 55 -82 0 -89 10 -45 59 67
74 122 102 205 103 29 0 31 1 8 5 -16 2 -28 9 -28 14 0 14 -22 11 -41 -7 -16
-15 -17 -14 -12 6 6 22 5 22 -76 15 -87 -8 -98 -1 -64 37 28 31 8 20 -41 -23z
m49 -550 c232 -32 311 -50 385 -86 104 -50 199 -148 263 -268 26 -49 45 -95
43 -102 -3 -7 -23 -16 -45 -19 -53 -9 -81 -28 -64 -45 10 -10 26 -10 73 -1 34
6 67 9 74 6 14 -5 81 -112 75 -119 -3 -2 -38 -5 -79 -6 -94 -2 -154 -20 -219
-63 l-51 -35 -44 19 c-61 28 -150 34 -209 16 l-47 -14 -41 39 c-51 49 -100 74
-182 96 -82 21 -243 21 -327 0 -36 -9 -82 -19 -103 -22 l-38 -4 28 38 c16 21
54 71 87 111 63 78 111 152 176 276 23 44 53 100 67 125 24 45 51 67 83 68 8
1 51 -4 95 -10z m672 -665 c-3 -3 -12 -4 -19 -1 -8 3 -5 6 6 6 11 1 17 -2 13
-5z m-1217 -60 c0 -8 -5 -12 -10 -9 -6 4 -8 11 -5 16 9 14 15 11 15 -7z m930
-32 l45 -18 -4 -85 c-4 -101 11 -184 45 -242 26 -46 30 -62 13 -51 -6 3 -3 -8
5 -25 9 -17 19 -31 22 -31 2 0 0 9 -6 21 -19 34 -3 34 26 0 39 -46 102 -80
185 -97 117 -24 212 -3 301 68 l41 32 -6 -34 c-7 -35 -45 -83 -82 -103 -11 -6
-47 -18 -80 -28 -53 -15 -57 -17 -34 -24 57 -15 199 46 199 85 0 7 3 11 6 7
12 -12 -51 -146 -145 -312 -23 -40 -110 -151 -133 -171 -273 -228 -413 -304
-560 -304 -89 0 -163 30 -265 108 -97 73 -269 251 -319 329 -122 189 -218 490
-198 620 l7 48 14 -40 c7 -22 18 -44 23 -49 6 -6 10 -23 10 -38 0 -35 23 -91
47 -116 35 -37 98 -69 146 -74 26 -3 47 -4 47 -3 0 2 -23 11 -52 21 -29 9 -58
22 -66 28 -26 22 -67 68 -87 99 l-20 32 42 -33 c75 -59 127 -76 233 -76 84 -1
102 3 158 28 132 61 229 226 223 379 -2 41 1 48 21 56 38 16 149 11 198 -7z
m-1286 -37 c13 -14 31 -89 29 -122 -2 -34 -3 -35 -20 -22 -19 16 -48 79 -58
127 -6 28 -4 32 13 32 12 0 27 -7 36 -15z m275 -92 c-1 -16 -5 -41 -9 -58 -6
-27 -8 -28 -14 -10 -4 11 -12 30 -17 43 -15 38 -11 52 16 52 21 0 25 -5 24
-27z m-155 11 c9 -3 16 -12 16 -20 0 -10 12 -14 40 -14 37 0 40 -2 49 -37 21
-83 50 -274 44 -290 -6 -16 -47 -28 -63 -18 -22 14 -50 87 -65 170 -18 102
-19 105 -51 105 -18 0 -24 5 -24 21 0 19 4 21 30 16 25 -6 30 -3 30 13 0 13
-9 22 -25 26 -20 5 -23 9 -14 20 13 16 12 16 33 8z m1871 -301 c-9 -37 -18
-20 -9 19 4 18 9 27 11 20 3 -7 2 -24 -2 -39z m125 -130 c0 -62 -3 -74 -20
-83 -26 -14 -64 5 -56 26 3 9 16 49 27 90 19 65 24 72 35 56 8 -10 13 -45 14
-89z"/>
<path d="M1715 2651 c-57 -19 -125 -58 -125 -71 0 -19 18 -17 75 7 78 34 186
41 271 19 76 -20 104 -20 104 -2 0 55 -213 86 -325 47z"/>
<path d="M2111 2084 c0 -11 3 -14 6 -6 3 7 2 16 -1 19 -3 4 -6 -2 -5 -13z"/>
<path d="M2110 1805 c0 -25 38 -92 55 -99 9 -3 41 -9 71 -12 53 -7 55 -6 89
30 24 26 35 47 35 67 0 18 -4 28 -10 24 -5 -3 -10 -13 -10 -21 0 -17 -57 -54
-85 -54 -48 0 -97 22 -113 51 -19 32 -32 38 -32 14z"/>
<path d="M2730 1720 c-11 -7 -5 -10 23 -10 20 0 37 5 37 10 0 13 -40 13 -60 0z"/>
<path d="M1810 1649 c0 -5 5 -9 10 -9 6 0 10 -10 10 -22 0 -13 7 -31 14 -41 7
-9 11 -27 9 -40 -8 -43 51 -152 121 -221 76 -75 151 -114 233 -122 75 -7 133
11 222 70 74 49 114 94 150 163 27 55 27 71 -1 47 -21 -18 -20 -17 2 16 13 19
28 37 32 38 4 2 8 15 8 28 0 14 7 27 15 30 8 4 15 10 15 15 0 13 -28 11 -32
-2 -2 -7 -26 -5 -73 6 -92 21 -185 22 -262 1 -63 -16 -63 -16 -125 10 -44 19
-86 28 -138 31 -41 2 -105 5 -142 7 -38 2 -68 -1 -68 -5z m425 -111 c82 -8
121 -15 105 -19 -34 -9 -192 1 -254 16 -48 12 -49 13 -16 14 19 1 93 -4 165
-11z m-200 -176 c51 -34 149 -62 222 -63 l68 0 -40 -15 c-97 -36 -256 36 -359
163 l-39 48 59 -56 c32 -31 73 -65 89 -77z m525 84 c0 -2 -8 -10 -17 -17 -16
-13 -17 -12 -4 4 13 16 21 21 21 13z m-316 -92 c22 4 27 3 16 -4 -28 -18 -120
-10 -120 10 0 5 16 4 37 -2 20 -5 50 -7 67 -4z m176 -18 c0 -2 -7 -7 -16 -10
-8 -3 -12 -2 -9 4 6 10 25 14 25 6z"/>
<path d="M2258 3593 c7 -3 16 -2 19 1 4 3 -2 6 -13 5 -11 0 -14 -3 -6 -6z"/>
<path d="M2860 3300 c6 -11 13 -20 16 -20 2 0 0 9 -6 20 -6 11 -13 20 -16 20
-2 0 0 -9 6 -20z"/>
<path d="M2880 3267 c0 -2 13 -36 29 -73 16 -38 37 -95 47 -126 9 -31 22 -55
27 -51 11 7 0 86 -18 130 -13 30 -85 133 -85 120z m77 -159 c-3 -8 -6 -5 -6 6
-1 11 2 17 5 13 3 -3 4 -12 1 -19z"/>
<path d="M2809 3193 c16 -32 41 -94 56 -138 29 -84 79 -193 97 -210 6 -5 3 5
-6 23 -10 18 -33 79 -52 135 -31 90 -108 247 -120 247 -2 0 9 -26 25 -57z"/>
<path d="M2986 3003 c-8 -19 28 -131 59 -188 22 -39 68 -76 80 -63 7 6 -21 82
-44 117 -9 14 -14 34 -13 47 2 12 -8 34 -22 50 l-25 29 -1 -26 c0 -15 7 -32
15 -39 11 -9 12 -15 2 -25 -10 -10 -16 -2 -31 38 -13 36 -15 52 -7 55 13 4 15
22 2 22 -5 0 -12 -7 -15 -17z"/>
<path d="M3291 2830 c0 -3 8 -34 19 -70 16 -55 19 -60 19 -30 0 19 -8 51 -19
70 -11 19 -19 33 -19 30z"/>
<path d="M781 2214 c0 -11 3 -14 6 -6 3 7 2 16 -1 19 -3 4 -6 -2 -5 -13z"/>
<path d="M810 2064 c0 -15 42 -116 46 -111 2 2 -7 30 -21 63 -13 32 -24 54
-25 48z"/>
</g>
</svg>
