<?xml version="1.0" standalone="no"?>
<!DOCTYPE svg PUBLIC "-//W3C//DTD SVG 20010904//EN"
 "http://www.w3.org/TR/2001/REC-SVG-20010904/DTD/svg10.dtd">
<svg version="1.0" xmlns="http://www.w3.org/2000/svg"
 width="440.000000pt" height="440.000000pt" viewBox="0 0 440.000000 440.000000"
 preserveAspectRatio="xMidYMid meet">

<g transform="translate(0.000000,440.000000) scale(0.100000,-0.100000)"
fill="#000000" stroke="none">
<path d="M2185 3749 c-89 -8 -153 -21 -205 -43 -19 -8 -39 -15 -45 -16 -19 -5
-120 -78 -146 -106 -60 -65 -139 -220 -139 -274 0 -17 -4 -17 -62 7 -55 23
-78 26 -183 27 -137 1 -222 -14 -310 -56 -163 -76 -248 -192 -338 -458 -40
-119 -57 -239 -57 -412 0 -139 -16 -348 -36 -482 -31 -208 -20 -264 55 -287
l39 -12 4 -126 c2 -85 8 -136 18 -156 20 -40 76 -76 106 -69 40 10 71 -3 84
-36 7 -17 22 -37 33 -45 16 -11 23 -30 28 -79 5 -52 12 -71 40 -106 56 -70
114 -88 161 -51 24 19 24 19 47 -5 19 -20 32 -24 65 -22 33 2 44 9 62 35 12
18 25 51 29 75 l8 43 8 -59 c14 -95 58 -142 125 -134 34 4 41 -1 113 -72 97
-98 203 -152 335 -175 225 -38 367 2 541 152 87 75 89 76 119 63 49 -21 112
-24 145 -7 27 14 31 13 47 -4 26 -29 90 -43 125 -28 16 6 29 16 29 21 0 5 17
-9 38 -32 44 -45 80 -52 133 -24 30 15 68 80 69 117 0 17 2 17 22 3 12 -9 41
-16 63 -16 32 0 47 6 67 27 40 44 48 85 55 279 l6 182 40 -26 c58 -39 120 -38
154 2 38 44 28 95 -46 237 -34 65 -61 121 -61 124 0 3 10 3 23 -1 56 -19 100
-2 137 53 40 61 37 86 -35 253 -103 241 -112 269 -119 365 -28 373 -156 655
-416 915 -212 213 -446 355 -684 415 -106 26 -180 33 -291 24z m106 -88 c57
-11 115 -24 129 -29 39 -17 4 -14 -64 5 -95 26 -283 23 -361 -6 -89 -33 -116
-41 -110 -31 16 26 124 58 230 70 39 4 70 8 71 9 0 0 47 -8 105 -18z m54 -242
c50 -17 92 -34 95 -38 3 -3 22 -14 43 -24 38 -17 51 -26 88 -59 10 -10 19 -15
19 -11 0 3 9 -2 20 -12 11 -10 18 -20 16 -23 -3 -2 9 -17 25 -33 64 -63 19
-46 -119 43 -15 10 -47 27 -72 39 -25 11 -52 26 -60 34 -28 24 -191 75 -273
84 -174 20 -193 24 -172 33 11 4 83 6 160 4 125 -5 150 -9 230 -37z m-418 15
c-3 -3 -12 -4 -19 -1 -8 3 -5 6 6 6 11 1 17 -2 13 -5z m-700 -160 c-3 -3 -12
-4 -19 -1 -8 3 -5 6 6 6 11 1 17 -2 13 -5z m-67 -19 c0 -2 -18 -14 -40 -25
-22 -11 -40 -18 -40 -15 0 2 17 13 38 24 42 23 42 23 42 16z m1090 -486 c77
-14 143 -31 156 -40 6 -5 13 -7 16 -4 2 2 10 -11 17 -30 7 -19 19 -35 27 -35
21 0 17 -27 -5 -33 -12 -3 -21 -15 -23 -33 -2 -21 -9 -30 -24 -32 -12 -2 -30
-12 -40 -23 -9 -10 -29 -19 -43 -19 -15 0 -36 -6 -47 -14 -33 -24 -103 -22
-156 4 -27 12 -48 26 -48 31 0 5 -6 9 -12 9 -7 0 -34 21 -60 46 -38 37 -48 53
-48 79 0 48 9 65 35 65 12 0 30 9 39 19 28 31 82 34 216 10z m-422 -493 c64
-33 123 -91 154 -154 19 -39 23 -63 23 -137 0 -79 -4 -97 -29 -148 -33 -64
-99 -131 -152 -153 -33 -14 -163 -44 -187 -44 -7 0 -6 4 3 11 12 8 8 10 -17 7
-19 -3 -30 0 -26 5 4 6 -3 8 -15 5 -12 -4 -20 -3 -17 1 6 11 -64 42 -78 35 -7
-4 -9 -4 -5 1 4 4 -14 32 -41 61 -28 30 -56 74 -65 100 -18 53 -21 151 -6 204
26 96 115 192 208 227 61 22 186 12 250 -21z m865 -23 c-7 -2 -21 -2 -30 0
-10 3 -4 5 12 5 17 0 24 -2 18 -5z m123 -48 c202 -91 254 -354 104 -518 -27
-30 -46 -57 -43 -61 4 -4 -1 -4 -11 0 -15 6 -17 4 -11 -6 5 -8 4 -11 -3 -6 -6
3 -16 0 -24 -7 -7 -8 -19 -12 -27 -9 -8 3 -11 0 -7 -6 4 -6 -2 -8 -16 -4 -12
3 -19 1 -15 -4 10 -17 -146 -2 -203 19 -76 28 -160 113 -185 187 -29 85 -26
182 9 250 86 172 265 241 432 165z m-616 -367 c0 -38 -1 -39 -32 -36 -30 3
-33 6 -31 33 5 65 63 68 63 3z m-10 -213 c16 -20 11 -24 -34 -32 -28 -4 -37
-2 -42 12 -13 32 52 49 76 20z m35 -316 c49 -5 94 -14 99 -19 7 -7 5 -10 -5
-11 -7 0 -30 -2 -49 -5 -43 -6 -248 13 -307 28 -125 31 11 35 262 7z m-90
-219 c22 -6 25 -8 9 -9 -35 -2 -84 11 -84 21 0 6 10 7 23 3 12 -3 36 -10 52
-15z m62 4 c-3 -3 -12 -4 -19 -1 -8 3 -5 6 6 6 11 1 17 -2 13 -5z"/>
</g>
</svg>
