<?xml version="1.0" standalone="no"?>
<!DOCTYPE svg PUBLIC "-//W3C//DTD SVG 20010904//EN"
 "http://www.w3.org/TR/2001/REC-SVG-20010904/DTD/svg10.dtd">
<svg version="1.0" xmlns="http://www.w3.org/2000/svg"
 width="440.000000pt" height="440.000000pt" viewBox="0 0 440.000000 440.000000"
 preserveAspectRatio="xMidYMid meet">

<g transform="translate(0.000000,440.000000) scale(0.100000,-0.100000)"
fill="#000000" stroke="none">
<path d="M1925 3640 c-156 -32 -244 -69 -334 -141 -90 -72 -163 -183 -298
-454 -164 -327 -193 -371 -274 -421 -97 -58 -280 -200 -301 -233 -35 -55 1
-96 147 -168 44 -22 103 -48 130 -58 28 -10 53 -21 58 -25 4 -3 0 -28 -8 -56
-39 -121 -47 -229 -52 -670 l-5 -431 31 -13 c17 -7 31 -19 31 -26 0 -20 56
-27 299 -39 51 -3 99 -9 106 -15 7 -6 33 -11 57 -11 69 -1 233 -8 238 -10 3
-2 39 -4 80 -5 41 0 98 -7 125 -13 97 -23 114 -24 121 -7 8 20 34 21 34 2 0
-24 65 -37 86 -16 6 6 25 4 53 -6 34 -11 46 -12 58 -3 11 10 25 10 65 0 37
-10 52 -11 57 -2 6 8 26 6 75 -9 49 -15 71 -18 80 -11 7 6 27 8 45 5 17 -4 37
-2 44 4 9 8 24 7 52 -2 48 -16 521 -21 530 -6 4 6 22 10 41 10 27 0 36 5 43
23 17 45 23 169 23 452 -1 305 -11 457 -37 600 -9 48 -15 89 -12 91 2 3 47 16
98 30 200 53 261 95 237 166 -8 24 -181 201 -284 292 -52 45 -98 154 -179 415
-103 337 -143 419 -255 531 -60 61 -94 85 -170 122 -52 26 -133 58 -179 73
-173 53 -485 70 -656 35z m-107 -1345 c20 -9 56 -35 80 -58 34 -34 48 -57 67
-120 25 -81 24 -102 -8 -163 -26 -51 -109 -119 -173 -144 -146 -55 -324 12
-392 147 -23 46 -37 97 -24 89 5 -3 12 -20 16 -37 5 -27 7 -29 21 -16 8 9 15
18 15 21 0 3 16 28 35 55 19 26 35 54 35 60 0 45 80 139 140 165 46 20 141 20
188 1z m416 -47 c22 -6 42 -13 44 -14 2 -1 0 -18 -3 -37 l-7 -35 -45 15 c-42
14 -85 14 -125 -2 -15 -6 -18 -1 -18 29 0 29 5 39 23 46 31 13 83 12 131 -2z
m470 -23 c70 -29 122 -92 140 -170 4 -16 16 -35 27 -43 10 -7 30 -33 45 -57
14 -25 28 -45 30 -45 3 0 9 12 15 26 5 15 12 24 16 21 13 -14 -31 -99 -73
-143 -65 -67 -140 -98 -234 -98 -91 0 -155 25 -218 87 -95 92 -116 190 -63
295 67 131 188 180 315 127z m-472 -113 c7 -7 -3 -9 -29 -5 -21 3 -56 0 -76
-5 -43 -12 -50 1 -9 17 31 12 99 8 114 -7z m-39 -86 c17 6 48 -18 66 -53 16
-31 30 -113 20 -113 -5 0 -9 7 -9 15 0 23 -16 18 -34 -10 -15 -23 -15 -29 3
-82 10 -31 17 -61 15 -67 -9 -22 -71 -56 -103 -56 -45 0 -109 35 -116 63 -4
15 1 37 13 58 32 56 36 76 13 84 -19 6 -19 8 -4 53 28 83 79 135 109 111 6 -5
19 -7 27 -3z m-518 -291 c71 1 100 5 138 22 26 12 45 18 42 14 -10 -18 -93
-49 -145 -56 -31 -4 -76 -2 -104 5 -59 13 -136 47 -136 60 0 5 26 -3 58 -18
49 -23 70 -27 147 -27z m285 -24 c0 -21 7 -55 15 -75 14 -33 14 -36 -2 -36
-29 0 -163 34 -163 42 0 4 10 13 23 19 12 7 42 29 67 50 25 22 48 39 53 39 4
0 7 -17 7 -39z m401 12 c8 -16 38 -50 68 -78 l54 -50 -39 -7 c-67 -12 -144 -7
-144 10 0 9 3 12 7 9 15 -16 35 49 28 96 -6 53 4 61 26 20z m527 -17 c-10 -7
-15 -15 -12 -19 3 -3 -21 -15 -53 -28 -65 -25 -178 -30 -227 -10 -40 16 -30
20 29 11 64 -10 152 4 218 35 59 27 70 30 45 11z m-348 -26 c8 -5 11 -10 5
-10 -5 0 -17 5 -25 10 -8 5 -10 10 -5 10 6 0 17 -5 25 -10z m-1030 -45 c8 -6
27 -16 43 -23 30 -13 34 -24 13 -41 -11 -9 -15 -8 -20 4 -3 9 -11 13 -17 10
-12 -8 -81 54 -73 66 5 9 32 2 54 -16z m517 -41 c-3 -3 -12 -4 -19 -1 -8 3 -5
6 6 6 11 1 17 -2 13 -5z m45 -36 c53 -19 68 -20 130 -12 67 9 97 2 67 -16 -14
-9 -11 -10 91 -28 71 -13 -194 -6 -352 9 -141 14 -193 29 -85 26 77 -2 97 4
55 18 l-23 7 25 8 c14 4 27 8 29 9 2 1 31 -9 63 -21z m-328 -122 c18 -40 21
-54 10 -45 -14 11 -15 9 -9 -27 4 -21 18 -65 31 -96 12 -32 18 -60 13 -63 -28
-18 -139 143 -139 201 0 46 43 116 60 97 4 -4 19 -34 34 -67z m481 2 c100 -11
122 -19 85 -29 -64 -17 -332 8 -393 36 -29 14 -22 14 93 9 69 -3 166 -10 215
-16z m381 -63 c8 -43 -13 -89 -70 -152 -61 -68 -82 -70 -51 -5 33 69 55 149
36 138 -4 -3 -1 10 8 28 10 20 19 29 23 22 5 -6 8 -1 8 13 0 23 1 24 20 6 11
-10 22 -32 26 -50z m-461 -147 c29 1 36 -1 25 -8 -22 -14 -82 -11 -110 6 -25
15 -25 15 10 7 19 -4 53 -6 75 -5z"/>
<path d="M1660 2254 c-17 -15 -37 -39 -45 -55 -17 -31 -20 -96 -5 -119 5 -8
44 -22 87 -31 67 -15 82 -15 105 -3 35 18 38 18 38 -3 1 -14 6 -12 25 10 50
57 24 176 -45 212 -16 8 -51 15 -79 15 -39 0 -56 -6 -81 -26z m59 -43 c13 -24
-9 -57 -33 -48 -23 9 -31 34 -16 52 17 20 37 19 49 -4z"/>
<path d="M2524 2195 c-43 -26 -60 -53 -70 -114 -8 -47 29 -124 55 -117 9 2 48
7 86 11 39 4 76 12 83 17 8 7 12 7 12 -1 0 -18 28 -13 39 7 39 73 10 170 -61
202 -57 26 -95 25 -144 -5z m50 -50 c9 -24 -4 -45 -29 -45 -29 0 -38 13 -30
40 8 24 50 27 59 5z"/>
<path d="M2125 1920 c-3 -5 1 -10 10 -10 9 0 13 5 10 10 -3 6 -8 10 -10 10 -2
0 -7 -4 -10 -10z"/>
</g>
</svg>
