<?xml version="1.0" standalone="no"?>
<!DOCTYPE svg PUBLIC "-//W3C//DTD SVG 20010904//EN"
 "http://www.w3.org/TR/2001/REC-SVG-20010904/DTD/svg10.dtd">
<svg version="1.0" xmlns="http://www.w3.org/2000/svg"
 width="440.000000pt" height="440.000000pt" viewBox="0 0 440.000000 440.000000"
 preserveAspectRatio="xMidYMid meet">

<g transform="translate(0.000000,440.000000) scale(0.100000,-0.100000)"
fill="#000000" stroke="none">
<path d="M2517 3703 c-42 -30 -103 -66 -134 -79 l-58 -23 -9 64 c-5 36 -13 65
-19 65 -5 0 -43 -18 -85 -39 -43 -22 -142 -63 -222 -92 -80 -28 -163 -61 -185
-72 -106 -53 -237 -161 -286 -237 l-16 -25 -17 57 c-9 31 -20 59 -25 62 -12 7
-169 -234 -197 -302 -34 -84 -44 -167 -44 -357 0 -198 31 -540 55 -605 12 -35
14 -63 9 -122 -4 -43 -10 -78 -14 -78 -5 0 -16 23 -25 50 -18 55 -59 110 -81
110 -26 0 -14 -39 20 -65 41 -31 50 -55 71 -200 9 -60 21 -123 27 -140 20 -62
-29 -111 -72 -72 -12 10 -12 9 -1 -5 9 -12 27 -18 56 -18 35 0 48 -5 64 -26
12 -15 21 -35 21 -44 0 -45 55 -224 94 -305 79 -166 151 -243 371 -401 262
-187 330 -194 594 -59 232 118 331 197 427 342 52 78 144 278 144 314 0 32 33
50 81 43 39 -5 47 -3 69 22 l25 27 -31 -22 c-32 -24 -74 -22 -74 2 0 11 64
219 97 315 11 31 26 50 57 70 22 14 44 25 49 24 14 -4 7 39 -7 44 -22 8 -62
-25 -98 -81 l-33 -50 -3 55 c-3 56 11 129 33 165 17 29 40 119 74 290 64 323
66 452 11 619 -37 109 -159 360 -175 358 -5 -1 -13 -26 -16 -57 -4 -31 -9 -58
-11 -61 -10 -9 -56 62 -83 127 -40 94 -126 259 -135 259 -5 0 -18 -24 -28 -52
-22 -58 -22 -58 -47 47 -26 113 -46 175 -55 175 -4 0 -22 -19 -39 -42 l-31
-42 0 56 c0 31 -4 59 -8 62 -5 3 -43 -20 -85 -51z m-442 -837 c142 -26 300
-37 436 -30 139 7 188 -2 347 -68 121 -50 168 -128 193 -321 11 -86 10 -230
-2 -242 -3 -3 -33 2 -65 11 -68 19 -469 30 -443 12 9 -6 -9 -8 -56 -5 -49 4
-62 3 -45 -4 18 -6 9 -8 -35 -4 -39 2 -53 1 -40 -5 12 -5 -11 -7 -63 -4 -45 2
-86 5 -90 8 -4 2 -26 3 -49 3 -22 -1 -39 2 -36 7 3 4 -5 5 -17 1 -14 -4 -20
-3 -16 3 7 11 -40 26 -54 17 -11 -7 -100 15 -100 25 0 4 -12 5 -26 2 -17 -3
-25 -1 -21 5 4 6 -4 8 -20 5 -15 -3 -24 -1 -20 5 4 5 -7 8 -25 5 -21 -3 -29
-1 -24 7 5 7 -2 9 -24 5 -20 -4 -30 -3 -30 5 0 7 -10 12 -22 11 -13 -1 -27 -1
-33 0 -5 1 -14 3 -20 5 -5 1 -38 3 -73 3 -73 2 -73 10 1 52 66 38 117 39 259
4 121 -30 138 -26 138 31 0 35 -9 42 -100 71 -37 12 -88 18 -156 18 -94 1
-103 -1 -143 -27 -51 -34 -83 -82 -78 -119 3 -26 1 -28 -32 -29 -20 0 -55 -2
-78 -5 -24 -3 -43 -4 -43 -2 0 11 33 148 55 228 32 117 62 185 104 233 56 63
83 73 226 87 72 6 139 13 150 14 29 4 69 0 170 -18z m-233 -650 c77 -17 154
-43 146 -51 -2 -3 -22 1 -44 7 -22 7 -102 12 -184 13 -171 0 -226 -15 -298
-82 l-45 -42 6 48 c7 62 25 99 56 117 34 19 253 13 363 -10z m975 -67 c94 -13
160 -40 172 -70 4 -13 8 -50 9 -83 1 -52 0 -58 -11 -41 -20 32 -79 85 -117
104 -19 10 -88 31 -153 46 -95 22 -134 27 -203 23 -52 -3 -79 -1 -70 4 48 27
239 36 373 17z m-1166 -63 c-24 -38 -28 -113 -8 -138 17 -21 162 -51 187 -38
28 15 43 12 36 -7 -3 -10 7 -3 24 15 22 23 30 42 30 68 0 29 3 34 13 25 8 -6
22 -29 32 -51 10 -22 24 -40 32 -40 10 0 7 -13 -12 -50 -49 -96 -126 -160
-195 -160 -18 0 -29 -4 -25 -10 4 -6 -7 -10 -27 -10 -26 0 -30 3 -18 11 11 7
3 9 -32 7 -27 -2 -48 1 -48 6 0 4 -11 6 -25 4 -14 -3 -25 -1 -25 5 0 5 -9 7
-20 4 -10 -3 -18 0 -17 5 2 9 -18 17 -50 20 -7 1 -10 5 -7 10 3 4 0 9 -5 9 -6
1 -17 2 -23 3 -7 0 -13 10 -13 21 0 11 -4 19 -10 18 -5 -1 -11 8 -12 20 0 12
-4 42 -7 67 -3 25 -2 34 2 22 6 -21 8 -19 20 20 16 53 61 115 62 84 0 -15 8
-11 38 22 33 36 89 70 115 72 5 0 -1 -15 -12 -34z m98 -5 c13 -24 -9 -57 -33
-48 -23 9 -31 34 -16 52 17 20 37 19 49 -4z m246 -35 c18 -8 36 -11 40 -8 8 9
0 -34 -16 -77 l-12 -34 -18 48 c-10 27 -23 53 -29 59 -11 11 -14 26 -5 26 3 0
21 -6 40 -14z m609 -31 c9 -24 -4 -45 -29 -45 -29 0 -38 13 -30 40 8 24 50 27
59 5z m212 -17 c20 -18 44 -49 52 -68 14 -34 15 -34 25 -12 14 30 35 28 55 -8
19 -34 29 -37 35 -12 3 9 3 -5 0 -33 -4 -55 -32 -145 -45 -145 -4 0 -8 -5 -8
-11 0 -5 6 -7 13 -3 6 4 4 -2 -7 -14 -10 -12 -21 -21 -25 -20 -17 2 -32 -3
-28 -9 3 -5 -5 -9 -16 -9 -12 -1 -49 -7 -82 -14 -73 -15 -182 -7 -239 19 -54
24 -99 76 -126 147 -24 64 -21 77 25 132 32 39 44 41 37 6 -2 -14 4 -43 14
-66 l18 -41 91 8 c49 4 104 8 120 9 26 1 32 6 44 46 13 39 12 50 -1 87 -20 54
-5 57 48 11z m-386 -30 c-16 -22 -30 -48 -30 -56 0 -28 -8 -8 -15 35 -5 35 -3
42 9 37 7 -3 17 0 21 5 3 6 10 9 15 6 5 -3 11 -1 15 5 3 5 8 10 11 10 2 0 -9
-19 -26 -42z m-174 -10 c14 -6 28 -30 39 -67 72 -232 132 -339 216 -381 84
-43 299 -66 387 -41 61 18 63 8 19 -92 -88 -200 -199 -339 -394 -495 -75 -59
-253 -171 -297 -186 -142 -47 -226 -8 -451 207 -160 153 -222 231 -290 367
-47 94 -80 184 -106 288 -21 88 -40 242 -29 242 12 0 40 -59 40 -84 0 -44 27
-94 62 -116 48 -29 167 -53 272 -54 83 0 98 2 151 29 77 39 136 112 215 267
71 138 91 152 166 116z m-521 -322 c89 -1 138 3 155 12 l25 13 -25 -20 c-43
-35 -87 -44 -189 -38 -113 7 -189 27 -219 60 l-22 24 72 -26 c63 -21 91 -25
203 -25z m946 -74 c121 -4 172 3 255 35 14 5 15 3 5 -15 -6 -11 -32 -30 -57
-42 -43 -21 -56 -22 -165 -17 -120 6 -174 21 -224 61 -18 14 -16 14 20 -1 27
-11 80 -18 166 -21z"/>
<path d="M2595 2449 c-97 -24 -115 -32 -121 -55 -7 -27 11 -64 31 -64 7 0 44
7 82 16 83 19 176 21 224 5 19 -6 53 -29 74 -51 52 -53 69 -53 62 1 -6 48 -48
105 -98 134 -39 22 -187 31 -254 14z"/>
<path d="M1978 2263 c7 -3 16 -2 19 1 4 3 -2 6 -13 5 -11 0 -14 -3 -6 -6z"/>
<path d="M2020 1574 c0 -70 69 -118 170 -117 90 1 145 47 138 115 l-3 33 -22
-38 c-26 -43 -58 -59 -123 -60 -59 -1 -115 26 -130 64 -15 36 -30 38 -30 3z"/>
<path d="M1730 1420 c0 -5 3 -10 8 -10 4 0 15 -20 25 -44 10 -25 32 -65 48
-89 51 -77 201 -180 281 -192 30 -5 31 -4 9 5 -33 14 -21 23 14 10 15 -6 44
-7 64 -4 20 4 33 3 29 -1 -4 -5 -25 -11 -45 -15 -34 -7 -32 -8 23 -9 123 -2
273 77 349 184 25 34 45 69 45 78 0 8 10 17 22 21 17 4 20 8 11 17 -9 9 -20 8
-49 -6 -33 -15 -58 -17 -238 -11 -220 8 -504 39 -550 62 -34 17 -46 18 -46 4z
m525 -111 c185 -22 91 -48 -105 -30 -132 12 -207 27 -217 44 -7 11 168 3 322
-14z"/>
<path d="M1940 1070 c36 -33 124 -80 150 -80 8 0 -13 13 -48 30 -34 16 -79 41
-100 56 l-37 26 35 -32z"/>
<path d="M2410 1074 c-50 -35 -116 -66 -175 -81 l-50 -13 55 4 c36 3 48 1 35
-4 -37 -16 -158 -10 -223 10 -86 27 -102 26 -102 -5 0 -32 76 -116 137 -152
53 -31 80 -26 160 26 70 45 92 69 95 102 2 18 -2 25 -20 27 -19 3 -15 7 25 28
27 14 61 39 78 55 36 35 32 36 -15 3z"/>
</g>
</svg>
