<?xml version="1.0" standalone="no"?>
<!DOCTYPE svg PUBLIC "-//W3C//DTD SVG 20010904//EN"
 "http://www.w3.org/TR/2001/REC-SVG-20010904/DTD/svg10.dtd">
<svg version="1.0" xmlns="http://www.w3.org/2000/svg"
 width="440.000000pt" height="440.000000pt" viewBox="0 0 440.000000 440.000000"
 preserveAspectRatio="xMidYMid meet">

<g transform="translate(0.000000,440.000000) scale(0.100000,-0.100000)"
fill="#000000" stroke="none">
<path d="M2379 3507 c-10 -19 -10 -20 2 -11 8 6 21 13 28 16 12 3 12 6 -2 11
-11 4 -21 -1 -28 -16z"/>
<path d="M1576 3253 c-6 -14 -5 -15 5 -6 7 7 10 15 7 18 -3 3 -9 -2 -12 -12z"/>
<path d="M1488 3172 c-62 -80 -156 -296 -172 -392 -6 -37 -46 -350 -46 -363 0
-4 -9 -3 -21 4 -17 9 -25 7 -45 -12 -36 -34 -44 -77 -51 -264 -6 -191 3 -249
41 -266 21 -10 24 -20 30 -94 6 -89 30 -205 48 -239 23 -43 29 -174 7 -160 -8
4 -8 0 0 -15 13 -24 73 -64 137 -92 42 -19 134 -115 134 -141 0 -20 60 -106
119 -170 82 -90 190 -129 301 -108 66 12 228 91 273 133 45 42 89 55 151 46
104 -16 304 -26 357 -18 60 9 90 28 128 79 l25 35 -32 -29 c-18 -17 -32 -28
-33 -25 0 2 -2 15 -5 28 -5 28 16 88 66 186 29 58 40 71 62 73 24 3 28 10 44
79 14 58 23 77 40 83 76 29 204 305 204 440 0 50 -4 65 -23 84 -13 13 -29 25
-35 27 -9 3 -9 17 2 59 37 144 48 251 43 430 -5 185 -16 246 -63 349 -27 59
-40 65 -23 10 24 -78 27 -100 15 -139 -7 -23 -15 -37 -20 -33 -4 4 -4 -6 -1
-22 10 -40 10 -37 1 -63 -4 -13 -28 -44 -52 -70 -42 -45 -64 -98 -50 -121 4
-6 -2 -16 -14 -23 -12 -8 -20 -23 -20 -40 0 -16 -3 -28 -7 -28 -3 0 -47 41
-98 90 -116 114 -204 178 -330 240 -197 97 -373 139 -611 147 -232 8 -347 -18
-497 -114 -97 -62 -96 -63 -71 49 9 40 18 91 20 113 8 84 57 210 99 252 8 7
11 21 8 30 -4 10 -2 14 5 9 6 -3 13 -2 17 4 3 5 0 10 -7 10 -8 0 -30 -22 -50
-48z m197 -781 c15 -6 9 -9 -27 -13 -89 -10 -136 -72 -125 -165 3 -27 14 -54
28 -69 21 -22 21 -24 3 -24 -32 1 -95 53 -120 99 -22 41 -22 45 -7 70 30 47
57 73 98 92 41 19 114 24 150 10z m-31 -74 c13 -21 -15 -53 -38 -44 -26 10
-31 38 -11 54 22 16 35 13 49 -10z m187 -62 c10 -22 19 -61 19 -86 0 -43 -3
-48 -33 -62 -18 -9 -57 -19 -87 -22 -52 -7 -54 -6 -35 9 14 12 15 14 4 10 -10
-3 -20 -1 -23 4 -7 12 11 27 43 37 21 6 23 5 18 -15 -5 -21 -5 -21 15 -3 49
44 63 116 35 173 l-17 33 21 -19 c12 -10 30 -37 40 -59z m77 -746 c34 -6 61
-14 58 -16 -6 -6 -158 25 -165 34 -3 3 5 3 19 0 14 -3 53 -11 88 -18z m-8
-145 c0 -9 -28 -3 -46 11 -17 13 -16 14 14 4 17 -6 32 -13 32 -15z m100 -14
c0 -6 -16 -8 -42 -4 -59 9 -60 14 -5 14 26 0 47 -5 47 -10z"/>
<path d="M3000 3145 c30 -30 57 -55 59 -55 3 0 -19 25 -49 55 -30 30 -57 55
-59 55 -3 0 19 -25 49 -55z"/>
<path d="M3087 3040 c3 -11 9 -20 13 -20 5 0 12 -9 15 -20 3 -11 11 -20 16
-20 5 0 -3 18 -17 40 -30 45 -34 48 -27 20z"/>
</g>
</svg>
