<?xml version="1.0" standalone="no"?>
<!DOCTYPE svg PUBLIC "-//W3C//DTD SVG 20010904//EN"
 "http://www.w3.org/TR/2001/REC-SVG-20010904/DTD/svg10.dtd">
<svg version="1.0" xmlns="http://www.w3.org/2000/svg"
 width="440.000000pt" height="440.000000pt" viewBox="0 0 440.000000 440.000000"
 preserveAspectRatio="xMidYMid meet">

<g transform="translate(0.000000,440.000000) scale(0.100000,-0.100000)"
fill="#000000" stroke="none">
<path d="M1955 3570 c-95 -16 -185 -52 -255 -100 -14 -9 -55 -27 -93 -39 -85
-29 -152 -74 -199 -137 -56 -73 -72 -130 -65 -232 6 -78 4 -87 -18 -116 -34
-45 -64 -143 -74 -244 -15 -141 8 -405 46 -532 2 -8 13 10 24 40 19 51 35 109
88 315 57 219 80 270 151 344 82 84 207 113 381 86 57 -9 149 -22 204 -30 55
-8 215 -19 355 -24 320 -11 364 -22 451 -110 65 -67 92 -127 108 -247 17 -122
28 -335 17 -341 -5 -4 -6 0 -1 7 6 9 4 11 -4 5 -9 -5 -8 -12 7 -25 11 -10 28
-46 38 -79 l18 -61 33 90 c51 142 84 316 86 451 2 113 1 117 -31 179 -22 43
-32 77 -32 108 0 27 -8 57 -20 77 -15 24 -19 47 -18 97 3 81 -11 104 -143 238
-147 149 -286 220 -529 271 -142 29 -383 34 -525 9z m292 -56 c69 -52 87 -110
99 -317 8 -146 10 -142 -76 -99 l-54 27 -37 118 c-42 135 -84 210 -140 251
-21 16 -36 32 -33 35 8 8 154 18 184 13 14 -3 39 -15 57 -28z m239 2 c182 -36
316 -98 406 -188 35 -35 36 -38 27 -80 -5 -23 -14 -53 -20 -64 -27 -52 -161
-89 -370 -101 l-107 -6 -5 119 c-3 93 -10 136 -31 199 -14 44 -31 88 -36 97
-14 24 -12 48 3 48 6 0 67 -11 133 -24z m-666 -128 c56 -18 75 -33 152 -110
90 -91 146 -163 135 -175 -4 -3 -66 23 -139 60 -173 85 -351 147 -424 147 -30
0 -54 4 -54 10 0 19 71 65 117 77 75 18 143 15 213 -9z"/>
<path d="M1679 2506 c-57 -16 -146 -64 -153 -82 -7 -18 12 -28 28 -15 7 6 47
23 87 37 65 23 85 26 159 21 47 -3 107 -13 133 -22 37 -13 51 -15 60 -6 52 52
-185 102 -314 67z"/>
<path d="M2580 2466 c-73 -18 -90 -26 -90 -41 0 -24 17 -26 87 -9 131 31 240
9 333 -67 40 -33 50 -36 50 -13 0 25 -69 85 -128 111 -66 29 -176 37 -252 19z"/>
<path d="M1720 2351 l75 -7 -95 -4 c-52 -2 -118 -4 -147 -5 -102 -2 -171 -80
-193 -220 -26 -165 38 -317 107 -253 13 12 33 53 44 90 13 43 25 66 32 62 7
-3 4 1 -5 9 -19 15 -25 32 -8 22 6 -3 10 4 10 16 0 46 57 121 95 124 6 0 16 4
23 9 23 14 22 2 -3 -49 -37 -73 -32 -155 10 -155 12 0 67 -11 120 -25 109 -27
117 -26 142 32 19 46 16 97 -7 143 -23 44 -16 50 23 20 31 -25 67 -116 67
-171 0 -36 2 -39 15 -25 40 40 65 182 45 255 -13 51 -63 106 -86 97 -8 -3 -13
-2 -9 3 9 15 -89 31 -214 35 -90 3 -99 2 -41 -3z m167 -17 c-3 -3 -12 -4 -19
-1 -8 3 -5 6 6 6 11 1 17 -2 13 -5z m-127 -209 c0 -27 -17 -36 -42 -23 -23 11
-23 34 -1 46 24 14 43 4 43 -23z"/>
<path d="M1568 2343 c6 -2 18 -2 25 0 6 3 1 5 -13 5 -14 0 -19 -2 -12 -5z"/>
<path d="M2088 2333 c6 -2 18 -2 25 0 6 3 1 5 -13 5 -14 0 -19 -2 -12 -5z"/>
<path d="M2137 2319 c-9 -5 -22 -7 -27 -4 -6 3 -10 1 -10 -5 0 -6 7 -13 15
-16 8 -4 12 -11 8 -18 -4 -6 1 -5 10 3 13 11 37 12 104 7 47 -3 91 -11 98 -16
8 -7 17 -4 30 10 18 20 17 20 -23 20 -23 0 -42 3 -42 8 0 4 -34 6 -76 4 -55
-3 -75 -1 -70 7 9 13 6 13 -17 0z"/>
<path d="M2188 2323 c12 -2 32 -2 45 0 12 2 2 4 -23 4 -25 0 -35 -2 -22 -4z"/>
<path d="M2328 2313 c12 -2 32 -2 45 0 12 2 2 4 -23 4 -25 0 -35 -2 -22 -4z"/>
<path d="M2464 2280 c-34 -14 -73 -68 -90 -127 -17 -57 -14 -126 8 -208 l11
-40 12 51 c14 63 57 138 91 160 13 9 26 15 29 13 2 -2 -8 -27 -21 -54 -27 -55
-27 -102 2 -157 14 -27 19 -29 47 -24 18 4 76 10 130 13 l97 6 10 38 c12 43 1
105 -24 143 -15 24 -15 24 15 16 17 -5 38 -15 46 -21 24 -20 53 -86 53 -119 0
-17 4 -29 9 -25 5 3 9 -7 9 -22 -1 -65 51 -135 102 -139 17 -1 29 0 26 3 -3 3
1 12 9 19 20 20 35 104 35 193 0 101 -30 166 -98 211 -26 17 -55 29 -65 26 -9
-2 -15 -1 -12 4 8 13 -93 34 -162 35 -34 0 -55 3 -45 7 9 4 -32 7 -93 7 -60 0
-119 -4 -131 -9z m303 -16 c-3 -3 -12 -4 -19 -1 -8 3 -5 6 6 6 11 1 17 -2 13
-5z m60 -10 c-3 -3 -12 -4 -19 -1 -8 3 -5 6 6 6 11 1 17 -2 13 -5z m-219 -192
c4 -26 -22 -40 -43 -22 -11 9 -12 17 -4 32 13 25 43 19 47 -10z"/>
<path d="M2167 2218 c-10 -8 -19 -33 -23 -63 -6 -49 -6 -50 10 -22 8 15 13 34
9 42 -15 41 67 61 117 29 l25 -16 -24 21 c-26 24 -87 28 -114 9z"/>
<path d="M2235 2180 c28 -12 37 -12 30 0 -3 6 -16 10 -28 9 -21 0 -21 -1 -2
-9z"/>
<path d="M2287 2173 c-2 -5 -1 -19 4 -33 7 -23 7 -23 8 8 1 31 -3 40 -12 25z"/>
<path d="M1170 2123 c0 -10 15 -33 34 -53 39 -40 63 -110 71 -206 3 -35 7 -93
10 -129 5 -61 4 -66 -17 -75 -21 -8 -20 -9 10 -9 17 -1 32 -3 32 -6 0 -2 12
-51 26 -107 51 -196 109 -292 276 -454 189 -182 256 -227 394 -260 95 -23 290
-24 364 -1 115 35 410 240 500 348 57 69 105 158 145 272 27 74 29 78 53 72
22 -5 24 -4 12 9 -16 20 -3 96 41 241 28 90 36 105 80 146 46 44 61 69 40 69
-19 0 -73 -54 -93 -94 -11 -22 -24 -43 -28 -46 -4 -3 -19 -32 -34 -65 -15 -33
-33 -66 -40 -75 -7 -8 -18 -34 -25 -57 -28 -98 -98 -138 -223 -127 -63 5 -96
15 -161 46 -81 39 -197 131 -218 172 -8 15 -1 11 27 -14 25 -22 20 -14 -13 20
-48 51 -103 146 -103 179 0 8 -3 12 -6 9 -7 -8 24 -114 47 -159 45 -90 183
-207 293 -248 85 -32 201 -43 272 -26 32 7 60 12 62 11 5 -5 -76 -154 -110
-205 -18 -25 -57 -72 -87 -105 -55 -58 -288 -248 -366 -299 -105 -68 -403 -64
-545 8 -45 24 -259 233 -336 330 -89 113 -164 241 -172 295 -2 13 -7 29 -11
35 -12 15 -39 169 -45 255 -3 41 -10 91 -16 110 -5 19 -10 48 -10 64 0 38 -9
29 -12 -12 -1 -18 -5 -32 -8 -32 -3 0 -13 27 -23 61 -18 62 -49 114 -74 123
-8 3 -13 -1 -13 -11z"/>
<path d="M1293 2075 c0 -27 2 -38 4 -22 2 15 2 37 0 50 -2 12 -4 0 -4 -28z"/>
<path d="M2132 2080 c0 -14 2 -19 5 -12 2 6 2 18 0 25 -3 6 -5 1 -5 -13z"/>
<path d="M2302 2030 c0 -19 2 -27 5 -17 2 9 2 25 0 35 -3 9 -5 1 -5 -18z"/>
<path d="M2107 1997 c-9 -29 -32 -78 -51 -110 -19 -32 -30 -54 -23 -50 19 11
-29 -50 -65 -83 -120 -111 -295 -166 -428 -134 -64 15 -100 45 -140 116 -17
29 -33 54 -35 54 -1 0 1 -19 7 -42 22 -99 81 -148 186 -155 165 -12 310 39
428 150 79 73 119 151 139 270 8 52 2 46 -18 -16z"/>
<path d="M2312 1960 c0 -14 2 -19 5 -12 2 6 2 18 0 25 -3 6 -5 1 -5 -13z"/>
<path d="M2040 1625 c0 -39 21 -68 64 -89 43 -20 138 -21 177 0 27 14 59 65
59 94 0 19 -17 10 -28 -16 -17 -36 -75 -58 -139 -51 -58 6 -97 28 -118 66
l-14 26 -1 -30z"/>
<path d="M3139 1533 c-13 -16 -12 -17 4 -4 9 7 17 15 17 17 0 8 -8 3 -21 -13z"/>
<path d="M1760 1446 c0 -70 117 -217 222 -279 67 -39 158 -60 244 -55 91 4 70
-11 -24 -19 -112 -9 -211 37 -336 156 -65 62 -56 36 18 -52 90 -105 178 -147
315 -149 76 -1 93 2 145 28 75 37 182 139 190 181 2 11 16 37 30 58 29 43 34
90 10 99 -9 3 -102 6 -207 6 -173 0 -340 14 -559 46 -47 7 -48 6 -48 -20z
m499 -77 c187 -22 100 -48 -99 -30 -131 12 -207 27 -217 44 -6 11 171 3 316
-14z m271 -112 c0 -2 -10 -12 -22 -23 l-23 -19 19 23 c18 21 26 27 26 19z
m-358 -100 c23 1 36 -3 32 -9 -9 -14 -92 -4 -107 12 -10 10 -7 11 13 5 14 -5
42 -8 62 -8z"/>
</g>
</svg>
