<?xml version="1.0" standalone="no"?>
<!DOCTYPE svg PUBLIC "-//W3C//DTD SVG 20010904//EN"
 "http://www.w3.org/TR/2001/REC-SVG-20010904/DTD/svg10.dtd">
<svg version="1.0" xmlns="http://www.w3.org/2000/svg"
 width="440.000000pt" height="440.000000pt" viewBox="0 0 440.000000 440.000000"
 preserveAspectRatio="xMidYMid meet">

<g transform="translate(0.000000,440.000000) scale(0.100000,-0.100000)"
fill="#000000" stroke="none">
<path d="M2688 3563 c7 -3 16 -2 19 1 4 3 -2 6 -13 5 -11 0 -14 -3 -6 -6z"/>
<path d="M1093 3075 c3 -108 6 -128 34 -195 17 -41 46 -101 66 -134 l35 -59
11 44 c6 24 20 67 31 94 11 28 23 71 26 96 6 42 4 47 -25 72 -17 14 -58 40
-91 58 -44 23 -62 39 -66 58 -20 86 -23 80 -21 -34z"/>
<path d="M2887 3159 c-3 -12 -10 -18 -15 -15 -24 15 -41 -52 -30 -121 5 -34
52 -70 200 -153 84 -46 231 -192 260 -256 25 -58 38 -111 31 -130 -3 -9 -23 1
-66 33 -151 112 -407 182 -877 239 -93 11 -214 16 -390 16 -283 0 -411 -13
-545 -57 -89 -29 -215 -92 -215 -107 0 -6 -7 -7 -16 -4 -15 6 -16 -1 -11 -58
5 -52 1 -82 -19 -150 -53 -183 -83 -387 -103 -691 -16 -236 -24 -538 -17 -588
6 -40 11 -46 36 -52 19 -4 30 -14 32 -27 2 -15 16 -25 53 -35 28 -8 58 -19 67
-24 10 -5 34 -9 54 -9 19 0 42 -7 50 -15 9 -8 24 -15 34 -15 11 0 27 -12 37
-26 16 -24 21 -26 69 -21 43 4 57 2 75 -14 27 -23 66 -25 90 -3 15 14 20 13
50 -5 20 -13 51 -21 77 -21 23 0 59 -7 79 -15 41 -17 83 -20 83 -5 0 14 79 13
119 -1 25 -9 38 -9 56 1 20 11 26 10 44 -7 23 -22 69 -23 81 -2 9 13 86 7 117
-10 37 -19 125 -32 139 -20 9 8 32 9 67 5 142 -20 115 -19 338 -13 155 5 193
9 230 25 24 10 71 24 104 31 64 12 115 31 115 44 0 4 13 7 28 7 27 0 28 3 40
69 8 48 9 102 2 182 -5 63 -14 227 -20 364 -18 404 -35 561 -79 747 -15 65
-16 80 -5 96 7 10 14 47 16 82 l3 62 72 19 c112 28 213 90 252 153 27 43 27
110 2 153 -55 89 -300 245 -483 306 -40 14 -265 57 -295 57 -6 0 -13 -9 -16
-21z m-417 -435 c69 -12 210 -46 300 -72 l55 -16 -70 -8 c-38 -4 -93 -11 -121
-14 -56 -6 -91 -24 -80 -42 5 -8 43 -10 130 -5 150 7 183 2 240 -42 45 -34 66
-33 47 3 -5 10 -17 24 -25 32 -9 7 -16 17 -16 22 0 13 67 -28 107 -65 l32 -30
-20 -29 c-11 -15 -27 -28 -35 -28 -8 0 -21 -8 -30 -19 -14 -15 -23 -17 -62 -9
-34 6 -48 5 -54 -4 -4 -7 -8 -8 -8 -3 0 6 -5 3 -10 -5 -6 -10 -10 -11 -10 -3
0 10 -20 11 -82 7 -45 -3 -85 -7 -90 -10 -4 -3 -8 0 -8 5 0 16 -64 13 -110 -5
-97 -39 -186 -253 -125 -298 18 -13 20 -13 23 5 2 11 28 45 58 77 50 53 54 55
47 27 -11 -50 -8 -91 11 -120 l18 -27 91 7 c51 4 95 12 99 19 6 8 8 7 8 -1 0
-7 7 -13 15 -13 33 0 54 99 30 144 -8 16 -13 31 -10 34 11 11 86 -50 107 -88
22 -38 26 -40 70 -40 27 0 49 5 52 13 3 6 4 -53 3 -133 -2 -133 -4 -150 -28
-201 -42 -89 -214 -340 -271 -395 -100 -97 -120 -114 -129 -114 -6 0 -33 -17
-62 -39 -29 -21 -63 -42 -77 -46 -14 -4 -52 -21 -84 -36 -33 -16 -61 -27 -64
-24 -2 2 -22 -5 -43 -15 -59 -31 -130 -26 -220 13 -41 18 -88 43 -104 55 -15
12 -32 22 -36 22 -5 0 -71 62 -147 138 l-137 137 -91 180 c-125 246 -129 260
-119 409 4 67 8 138 9 159 0 20 2 37 4 37 2 0 18 -11 35 -24 51 -39 86 -37
125 5 30 35 86 69 111 69 6 0 2 -15 -9 -32 -21 -35 -26 -102 -10 -128 5 -8 44
-22 87 -31 68 -15 81 -15 106 -2 33 17 53 9 36 -15 -6 -10 3 -1 21 18 27 30
31 41 28 81 -2 30 1 45 8 42 15 -5 74 -106 74 -126 0 -9 7 -17 15 -17 34 0 45
74 24 169 -13 61 -57 114 -118 142 -40 17 -43 18 -36 1 5 -14 4 -15 -6 -4 -7
6 -21 12 -30 12 -10 0 -19 6 -22 13 -4 9 -7 9 -17 0 -11 -10 -16 -9 -26 5 -11
14 -15 15 -23 3 -7 -11 -11 -10 -20 5 -10 18 -12 18 -25 1 -13 -16 -14 -16
-20 5 -7 23 -8 22 -20 -6 -13 -28 -14 -29 -20 -8 -11 35 -34 25 -27 -12 1 -5
-4 -4 -12 2 -8 7 -26 12 -41 12 -14 0 -37 0 -51 0 -32 0 -31 11 1 66 39 66
106 98 204 99 41 0 110 -6 153 -14 61 -11 81 -11 90 -2 21 22 -25 47 -108 60
-109 16 -174 13 -222 -9 -48 -21 -49 -21 -28 19 13 26 22 30 97 40 221 31 570
39 698 15z m-963 -129 c-20 -29 -26 -33 -31 -19 -4 11 3 25 20 41 36 33 41 22
11 -22z m-15 -307 c-15 -15 -24 -6 -16 16 5 12 10 14 17 7 8 -8 8 -14 -1 -23z
m317 8 c14 -17 -1 -56 -22 -56 -31 0 -51 53 -24 63 22 9 34 7 46 -7z m855 -71
c9 -24 -4 -45 -29 -45 -29 0 -38 13 -30 40 8 24 50 27 59 5z m492 -513 c-4 -3
-13 1 -22 10 -14 13 -14 21 -2 59 l13 44 8 -53 c5 -30 6 -56 3 -60z m4 -42
c-9 -6 -8 -11 6 -19 13 -8 15 -14 7 -17 -7 -3 -10 -18 -6 -38 9 -56 -35 -60
-58 -4 -16 38 -3 78 31 95 26 13 44 -2 20 -17z"/>
<path d="M2095 1860 c-10 -33 4 -75 36 -106 26 -25 39 -29 105 -32 57 -3 80 0
100 13 33 21 57 78 49 116 -7 30 -25 40 -25 14 0 -8 -5 -25 -11 -38 -34 -75
-209 -57 -226 23 -6 35 -19 39 -28 10z"/>
<path d="M1810 1696 c-9 -12 -5 -19 24 -38 20 -13 36 -30 36 -39 0 -27 66
-109 121 -151 69 -51 115 -75 164 -83 40 -6 40 -6 15 10 l-25 16 34 -5 c18 -3
48 -6 65 -7 l31 -1 -40 -14 c-40 -14 -40 -14 33 -10 124 8 256 82 302 170 17
31 33 47 55 53 41 12 42 47 0 51 -17 2 -33 -2 -40 -11 -5 -7 -35 -17 -65 -20
-30 -4 -84 -11 -120 -17 -118 -18 -407 14 -444 51 -6 5 -23 9 -39 9 -19 0 -38
9 -53 25 -26 29 -37 31 -54 11z m371 -126 c148 -12 206 -33 69 -24 -93 5 -189
19 -198 29 -7 6 -8 6 129 -5z"/>
<path d="M1917 1456 c36 -64 159 -171 232 -203 60 -25 147 -13 221 32 67 41
147 106 169 139 l15 21 -24 -20 c-14 -11 -30 -25 -37 -32 -39 -36 -160 -107
-201 -117 -105 -28 -184 4 -311 125 -39 37 -68 62 -64 55z"/>
<path d="M2218 1223 c-32 -2 -58 -8 -58 -13 0 -11 73 -32 91 -26 8 2 26 7 42
10 33 8 37 37 5 34 -13 -1 -49 -3 -80 -5z"/>
</g>
</svg>
