<?xml version="1.0" standalone="no"?>
<!DOCTYPE svg PUBLIC "-//W3C//DTD SVG 20010904//EN"
 "http://www.w3.org/TR/2001/REC-SVG-20010904/DTD/svg10.dtd">
<svg version="1.0" xmlns="http://www.w3.org/2000/svg"
 width="440.000000pt" height="440.000000pt" viewBox="0 0 440.000000 440.000000"
 preserveAspectRatio="xMidYMid meet">

<g transform="translate(0.000000,440.000000) scale(0.100000,-0.100000)"
fill="#000000" stroke="none">
<path d="M1442 3418 c-58 -63 -88 -161 -127 -413 -24 -157 -41 -225 -56 -225
-3 0 -6 -6 -7 -12 -1 -7 -5 -32 -8 -55 l-6 -43 83 39 c389 181 969 280 1478
250 91 -5 167 -7 169 -4 8 7 -133 70 -224 99 -392 127 -1022 83 -1310 -90 -31
-19 -57 -34 -58 -34 -3 0 3 66 15 165 16 127 47 283 63 317 17 34 16 35 -12 6z"/>
<path d="M2841 3423 c8 -10 17 -20 20 -23 10 -9 28 -46 45 -96 26 -78 81 -275
89 -321 4 -24 12 -43 18 -43 7 0 23 -3 36 -7 22 -6 23 -4 16 28 -15 69 -88
286 -113 334 -29 58 -86 130 -109 139 -14 6 -14 4 -2 -11z"/>
<path d="M2463 2863 c20 -2 54 -2 75 0 20 2 3 4 -38 4 -41 0 -58 -2 -37 -4z"/>
<path d="M2810 2864 c90 -8 276 -35 306 -46 26 -9 30 -15 26 -39 -5 -37 -1
-37 -375 -44 -387 -7 -539 -24 -977 -106 -25 -4 -119 -28 -210 -53 -91 -24
-190 -51 -220 -59 -30 -8 -68 -13 -85 -12 -16 1 -36 3 -44 4 -11 1 -10 6 5 23
12 13 13 18 4 13 -13 -8 -13 -6 -1 8 7 9 17 15 21 12 5 -3 10 -1 12 4 6 17
191 93 378 155 41 14 61 23 44 20 -122 -20 -423 -139 -589 -232 -64 -36 -72
-38 -92 -25 -20 14 -23 12 -50 -34 -23 -40 -29 -62 -31 -129 -5 -100 12 -137
101 -227 45 -46 80 -71 130 -92 55 -24 67 -34 67 -52 0 -13 4 -23 8 -23 4 0
29 -14 56 -30 45 -29 46 -31 31 -52 -27 -39 -16 -123 16 -115 26 7 36 -9 70
-118 26 -84 29 -102 18 -122 -11 -20 -9 -27 18 -60 18 -24 36 -65 47 -108 41
-164 132 -321 229 -394 88 -67 210 -111 305 -111 21 0 62 -7 92 -15 30 -9 87
-22 125 -29 39 -8 83 -19 98 -25 46 -18 91 -13 128 14 19 13 66 41 104 61 39
20 88 49 110 64 22 16 76 43 120 61 149 60 262 154 316 262 36 71 64 193 73
327 8 110 22 160 42 160 13 0 13 2 0 16 -12 12 -16 37 -16 109 l0 95 -24 -12
c-30 -13 -34 -36 -45 -308 -7 -176 -11 -201 -34 -257 -14 -35 -35 -76 -46 -92
-12 -16 -21 -34 -21 -40 0 -6 -33 -44 -72 -84 -56 -56 -96 -85 -173 -125 -55
-29 -116 -67 -136 -86 -46 -44 -145 -95 -135 -71 3 10 9 56 13 102 5 79 8 88
40 122 19 20 39 45 44 56 6 11 -8 1 -29 -23 -22 -23 -42 -42 -46 -42 -3 0 -6
17 -6 38 0 33 8 46 63 102 34 36 69 79 77 95 28 57 52 86 90 105 56 28 60 49
7 39 -23 -5 -59 -8 -80 -9 -21 0 -98 -18 -170 -40 -176 -52 -321 -80 -421 -80
-55 0 -116 -9 -191 -27 l-109 -28 76 -10 c64 -8 85 -16 124 -45 48 -36 141
-97 155 -102 5 -2 12 -18 15 -37 6 -31 5 -34 -12 -28 -17 6 -17 5 2 -11 12
-10 29 -44 38 -75 9 -31 25 -76 35 -101 l20 -45 -66 25 c-37 14 -74 29 -84 35
-10 5 -50 16 -89 24 -39 8 -106 29 -148 47 -64 27 -89 44 -156 113 -88 89
-158 197 -201 310 -31 82 -65 206 -65 235 0 11 -11 38 -25 60 -14 22 -25 45
-25 51 0 7 -11 27 -25 45 -27 35 -32 54 -14 54 6 0 9 8 7 18 -5 18 15 46 25
35 3 -3 9 12 13 33 3 22 10 45 14 53 4 7 4 30 -1 50 -4 20 -5 39 0 44 8 8 198
47 229 47 9 0 -15 -15 -54 -34 -38 -18 -82 -44 -96 -57 -24 -23 -83 -109 -74
-109 2 0 0 -16 -4 -35 -10 -45 5 -54 25 -16 22 44 72 87 140 120 76 37 212 66
274 57 60 -8 141 -35 141 -47 0 -18 21 -9 30 14 7 19 9 19 9 3 1 -14 9 -8 31
22 35 49 66 60 108 38 34 -18 62 -21 62 -7 0 8 41 17 116 26 21 3 22 0 18 -58
-4 -60 -4 -61 8 -27 22 60 55 114 92 149 l36 35 -20 -39 c-31 -61 -22 -135 22
-182 25 -27 64 -32 54 -7 -5 13 -1 15 20 11 65 -12 134 40 134 102 0 29 2 32
15 21 8 -7 15 -27 16 -44 0 -25 2 -27 8 -11 16 40 0 95 -40 137 l-38 40 37 -7
c49 -9 83 -28 123 -67 18 -18 38 -32 45 -30 6 1 21 -18 33 -43 21 -45 41 -59
41 -29 0 10 6 13 18 10 33 -10 45 8 38 55 -4 24 -13 54 -21 66 -14 20 -11 25
33 75 l48 53 -10 50 c-6 28 -15 56 -19 63 -27 40 76 8 117 -37 18 -20 19 -27
8 -66 -7 -25 -21 -54 -32 -65 -20 -20 -17 -50 5 -50 7 0 15 9 18 20 3 13 10
18 21 14 12 -5 16 0 16 17 0 18 13 32 50 54 108 64 173 147 214 273 15 43 16
61 7 104 -17 75 -79 166 -96 139 -3 -6 -1 -11 4 -11 6 0 11 -7 11 -15 0 -19 5
-21 -92 21 -114 49 -281 83 -426 88 -64 2 -97 2 -72 0z m47 -382 c81 -26 191
-79 181 -87 -2 -1 -57 -5 -123 -8 -66 -4 -129 -8 -140 -11 -11 -2 -40 -7 -65
-10 -25 -3 -56 -9 -70 -12 -14 -3 -34 -7 -45 -9 -44 -9 -50 -11 -62 -18 -7 -5
-17 -5 -23 -2 -5 3 -10 1 -10 -6 0 -6 -8 -9 -20 -6 -11 3 -20 1 -20 -4 0 -4
-7 -6 -15 -3 -8 4 -15 1 -15 -6 0 -6 -4 -9 -9 -6 -5 3 -58 -15 -117 -40 -150
-64 -205 -73 -404 -69 -158 3 -311 -10 -400 -35 -19 -6 -48 -10 -63 -10 -25 0
-27 3 -22 23 16 50 101 118 203 161 84 36 343 109 472 134 58 11 175 28 260
36 85 9 169 18 185 20 17 2 75 3 130 1 79 -2 119 -9 192 -33z m44 -223 c36
-38 39 -64 7 -54 -102 31 -288 34 -379 4 -35 -11 -86 -24 -114 -30 -27 -5 -59
-12 -70 -15 -41 -11 15 24 65 41 70 23 369 83 418 84 37 1 49 -4 73 -30z
m-751 -143 c0 -2 -9 -6 -20 -9 -11 -3 -18 -1 -14 4 5 9 34 13 34 5z m433 -17
c14 -22 2 -49 -22 -49 -26 0 -42 29 -29 53 11 21 36 19 51 -4z m-656 -5 c-3
-3 -12 -4 -19 -1 -8 3 -5 6 6 6 11 1 17 -2 13 -5z m597 -978 c18 -67 -6 -266
-38 -308 -17 -22 -92 -39 -122 -27 -50 18 -130 166 -141 258 -7 58 17 92 62
92 36 0 56 -4 73 -14 7 -5 34 2 65 16 58 27 91 21 101 -17z"/>
<path d="M2318 2853 c12 -2 32 -2 45 0 12 2 2 4 -23 4 -25 0 -35 -2 -22 -4z"/>
<path d="M2223 2843 c9 -2 23 -2 30 0 6 3 -1 5 -18 5 -16 0 -22 -2 -12 -5z"/>
<path d="M2143 2833 c9 -2 23 -2 30 0 6 3 -1 5 -18 5 -16 0 -22 -2 -12 -5z"/>
<path d="M2068 2823 c6 -2 18 -2 25 0 6 3 1 5 -13 5 -14 0 -19 -2 -12 -5z"/>
<path d="M1940 2805 c-74 -17 -32 -17 50 0 36 7 52 13 35 13 -16 0 -55 -6 -85
-13z"/>
<path d="M1830 2780 c-20 -6 -21 -8 -5 -8 11 0 29 3 40 8 25 11 -1 11 -35 0z"/>
<path d="M1750 2760 c-20 -6 -21 -8 -5 -8 11 0 29 3 40 8 25 11 -1 11 -35 0z"/>
<path d="M3251 2104 c-13 -16 -21 -41 -21 -63 l1 -36 14 40 c8 22 21 45 30 51
17 12 20 34 6 34 -5 0 -19 -12 -30 -26z"/>
<path d="M1715 1896 c-22 -7 -53 -20 -70 -30 -30 -17 -22 -16 45 10 52 19 149
17 222 -6 68 -21 108 -26 93 -11 -16 15 -165 51 -209 50 -23 0 -59 -6 -81 -13z"/>
<path d="M2070 1593 c0 -41 28 -96 57 -111 36 -19 84 -23 139 -12 68 14 104
45 104 91 l0 31 -28 -30 c-77 -82 -252 -56 -252 38 0 16 -4 30 -10 30 -5 0
-10 -17 -10 -37z"/>
</g>
</svg>
