<svg xmlns:xlink="http://www.w3.org/1999/xlink" xmlns="http://www.w3.org/2000/svg" viewBox="0 0 256 256" focusable="false" color="var(--token-f832120a-e8cd-4894-b0ca-4ab77d0613e8, rgb(13, 13, 23))" style="user-select: none; width: 100%; height: 100%; display: inline-block; fill: var(--token-f832120a-e8cd-4894-b0ca-4ab77d0613e8, rgb(13, 13, 23)); color: var(--token-f832120a-e8cd-4894-b0ca-4ab77d0613e8, rgb(13, 13, 23)); flex-shrink: 0;" width="256"  height="256" ><g color="var(--token-f832120a-e8cd-4894-b0ca-4ab77d0613e8, rgb(13, 13, 23))" weight="duotone" fill="#0D0D17"><path d="M224,72v48H160a32,32,0,0,1-64,0H32V72A16,16,0,0,1,48,56H208A16,16,0,0,1,224,72Z" opacity="0.2" fill="#0D0D17"></path><path d="M208,48H48A24,24,0,0,0,24,72V184a24,24,0,0,0,24,24H208a24,24,0,0,0,24-24V72A24,24,0,0,0,208,48ZM40,96H216v16H160a8,8,0,0,0-8,8,24,24,0,0,1-48,0,8,8,0,0,0-8-8H40Zm8-32H208a8,8,0,0,1,8,8v8H40V72A8,8,0,0,1,48,64ZM208,192H48a8,8,0,0,1-8-8V128H88.8a40,40,0,0,0,78.4,0H216v56A8,8,0,0,1,208,192Z" fill="#0D0D17"></path></g></svg>