<svg xmlns:xlink="http://www.w3.org/1999/xlink" xmlns="http://www.w3.org/2000/svg" viewBox="0 0 256 256" focusable="false" color="var(--token-f832120a-e8cd-4894-b0ca-4ab77d0613e8, rgb(13, 13, 23))" style="user-select: none; width: 100%; height: 100%; display: inline-block; fill: var(--token-f832120a-e8cd-4894-b0ca-4ab77d0613e8, rgb(13, 13, 23)); color: var(--token-f832120a-e8cd-4894-b0ca-4ab77d0613e8, rgb(13, 13, 23)); flex-shrink: 0;" width="256"  height="256" ><g color="var(--token-f832120a-e8cd-4894-b0ca-4ab77d0613e8, rgb(13, 13, 23))" weight="duotone" fill="#0D0D17"><path d="M234.35,129,152,152,129,234.35a8,8,0,0,1-15.21.27l-65.28-176A8,8,0,0,1,58.63,48.46l176,65.28A8,8,0,0,1,234.35,129Z" opacity="0.2" fill="#0D0D17"></path><path d="M237.33,106.21,61.41,41l-.16-.05A16,16,0,0,0,40.9,61.25a1,1,0,0,0,.05.16l65.26,175.92A15.77,15.77,0,0,0,121.28,248h.3a15.77,15.77,0,0,0,15-11.29l.06-.2,21.84-78,78-21.84.2-.06a16,16,0,0,0,.62-30.38ZM149.84,144.3a8,8,0,0,0-5.54,5.54L121.3,232l-.06-.17L56,56l175.82,65.22.16.06Z" fill="#0D0D17"></path></g></svg>