<svg xmlns:xlink="http://www.w3.org/1999/xlink" xmlns="http://www.w3.org/2000/svg" viewBox="0 0 256 256" focusable="false" color="var(--token-f832120a-e8cd-4894-b0ca-4ab77d0613e8, rgb(13, 13, 23))" style="user-select: none; width: 100%; height: 100%; display: inline-block; fill: var(--token-f832120a-e8cd-4894-b0ca-4ab77d0613e8, rgb(13, 13, 23)); color: var(--token-f832120a-e8cd-4894-b0ca-4ab77d0613e8, rgb(13, 13, 23)); flex-shrink: 0;" width="256"  height="256" ><g color="var(--token-f832120a-e8cd-4894-b0ca-4ab77d0613e8, rgb(13, 13, 23))" weight="duotone" fill="#0D0D17"><path d="M195.88,195.88l-39.6-39.6a40,40,0,0,0,0-56.56l39.6-39.6A96,96,0,0,1,195.88,195.88ZM60.12,60.12a96,96,0,0,0,0,135.76l39.6-39.6a40,40,0,0,1,0-56.56Z" opacity="0.2" fill="#0D0D17"></path><path d="M128,24A104,104,0,1,0,232,128,104.11,104.11,0,0,0,128,24Zm39.1,131.79a47.84,47.84,0,0,0,0-55.58l28.5-28.49a87.83,87.83,0,0,1,0,112.56ZM96,128a32,32,0,1,1,32,32A32,32,0,0,1,96,128Zm88.28-67.6L155.79,88.9a47.84,47.84,0,0,0-55.58,0L71.72,60.4a87.83,87.83,0,0,1,112.56,0ZM60.4,71.72l28.5,28.49a47.84,47.84,0,0,0,0,55.58L60.4,184.28a87.83,87.83,0,0,1,0-112.56ZM71.72,195.6l28.49-28.5a47.84,47.84,0,0,0,55.58,0l28.49,28.5a87.83,87.83,0,0,1-112.56,0Z" fill="#0D0D17"></path></g></svg>