<svg xmlns:xlink="http://www.w3.org/1999/xlink" xmlns="http://www.w3.org/2000/svg" viewBox="0 0 256 256" focusable="false" color="var(--token-f832120a-e8cd-4894-b0ca-4ab77d0613e8, rgb(13, 13, 23))" style="user-select: none; width: 100%; height: 100%; display: inline-block; fill: var(--token-f832120a-e8cd-4894-b0ca-4ab77d0613e8, rgb(13, 13, 23)); color: var(--token-f832120a-e8cd-4894-b0ca-4ab77d0613e8, rgb(13, 13, 23)); flex-shrink: 0;" width="256"  height="256" ><g color="var(--token-f832120a-e8cd-4894-b0ca-4ab77d0613e8, rgb(13, 13, 23))" weight="duotone" fill="#0D0D17"><path d="M216,48V176a8,8,0,0,1-8,8H80a8,8,0,0,1-8-8V48a8,8,0,0,1,8-8H208A8,8,0,0,1,216,48Z" opacity="0.2" fill="#0D0D17"></path><path d="M128,136v64a8,8,0,0,1-16,0V155.32L45.66,221.66a8,8,0,0,1-11.32-11.32L100.68,144H56a8,8,0,0,1,0-16h64A8,8,0,0,1,128,136ZM208,32H80A16,16,0,0,0,64,48V96a8,8,0,0,0,16,0V48H208V176H160a8,8,0,0,0,0,16h48a16,16,0,0,0,16-16V48A16,16,0,0,0,208,32Z" fill="#0D0D17"></path></g></svg>