<svg xmlns:xlink="http://www.w3.org/1999/xlink" xmlns="http://www.w3.org/2000/svg" viewBox="0 0 256 256" focusable="false" color="var(--token-f832120a-e8cd-4894-b0ca-4ab77d0613e8, rgb(13, 13, 23))" style="user-select: none; width: 100%; height: 100%; display: inline-block; fill: var(--token-f832120a-e8cd-4894-b0ca-4ab77d0613e8, rgb(13, 13, 23)); color: var(--token-f832120a-e8cd-4894-b0ca-4ab77d0613e8, rgb(13, 13, 23)); flex-shrink: 0;" width="256"  height="256" ><g color="var(--token-f832120a-e8cd-4894-b0ca-4ab77d0613e8, rgb(13, 13, 23))" weight="duotone" fill="#0D0D17"><path d="M217.36,133.36,128,224,38.64,133.36a50,50,0,0,1,70.72-70.72L128,80l18.64-17.36a50,50,0,1,1,70.72,70.72Z" opacity="0.2" fill="#0D0D17"></path><path d="M223,57a58.07,58.07,0,0,0-81.92-.1L128,69.05,114.91,56.86A58,58,0,0,0,33,139l89.35,90.66a8,8,0,0,0,11.4,0L223,139a58,58,0,0,0,0-82Zm-11.35,70.76L128,212.6,44.3,127.68a42,42,0,0,1,59.4-59.4l.2.2,18.65,17.35a8,8,0,0,0,10.9,0L152.1,68.48l.2-.2a42,42,0,1,1,59.36,59.44Z" fill="#0D0D17"></path></g></svg>