<svg xmlns:xlink="http://www.w3.org/1999/xlink" xmlns="http://www.w3.org/2000/svg" viewBox="0 0 256 256" focusable="false" color="var(--token-f832120a-e8cd-4894-b0ca-4ab77d0613e8, rgb(13, 13, 23))" style="user-select: none; width: 100%; height: 100%; display: inline-block; fill: var(--token-f832120a-e8cd-4894-b0ca-4ab77d0613e8, rgb(13, 13, 23)); color: var(--token-f832120a-e8cd-4894-b0ca-4ab77d0613e8, rgb(13, 13, 23)); flex-shrink: 0;" width="256"  height="256" ><g color="var(--token-f832120a-e8cd-4894-b0ca-4ab77d0613e8, rgb(13, 13, 23))" weight="duotone" fill="#0D0D17"><path d="M192,208H152L64,48h40Z" opacity="0.2" fill="#0D0D17"></path><path d="M216,40H168a8,8,0,0,0,0,16h16V176.85L111,44.14A8,8,0,0,0,104,40H40a8,8,0,0,0,0,16H56V200H40a8,8,0,0,0,0,16H88a8,8,0,0,0,0-16H72V79.15l73,132.71a8,8,0,0,0,7,4.14h40a8,8,0,0,0,8-8V56h16a8,8,0,0,0,0-16ZM156.73,200,77.53,56H99.27l79.2,144Z" fill="#0D0D17"></path></g></svg>