<svg xmlns:xlink="http://www.w3.org/1999/xlink" xmlns="http://www.w3.org/2000/svg" viewBox="0 0 256 256" focusable="false" color="var(--token-f832120a-e8cd-4894-b0ca-4ab77d0613e8, rgb(13, 13, 23))" style="user-select: none; width: 100%; height: 100%; display: inline-block; fill: var(--token-f832120a-e8cd-4894-b0ca-4ab77d0613e8, rgb(13, 13, 23)); color: var(--token-f832120a-e8cd-4894-b0ca-4ab77d0613e8, rgb(13, 13, 23)); flex-shrink: 0;" width="256"  height="256" ><g color="var(--token-f832120a-e8cd-4894-b0ca-4ab77d0613e8, rgb(13, 13, 23))" weight="duotone" fill="#0D0D17"><path d="M240,128l-48,40H64L16,128,64,88H192Z" opacity="0.2" fill="#0D0D17"></path><path d="M69.12,94.15,28.5,128l40.62,33.85a8,8,0,1,1-10.24,12.29l-48-40a8,8,0,0,1,0-12.29l48-40a8,8,0,0,1,10.24,12.3Zm176,27.7-48-40a8,8,0,1,0-10.24,12.3L227.5,128l-40.62,33.85a8,8,0,1,0,10.24,12.29l48-40a8,8,0,0,0,0-12.29ZM162.73,32.48a8,8,0,0,0-10.25,4.79l-64,176a8,8,0,0,0,4.79,10.26A8.14,8.14,0,0,0,96,224a8,8,0,0,0,7.52-5.27l64-176A8,8,0,0,0,162.73,32.48Z" fill="#0D0D17"></path></g></svg>