<svg xmlns:xlink="http://www.w3.org/1999/xlink" xmlns="http://www.w3.org/2000/svg" viewBox="0 0 256 256" focusable="false" color="var(--token-f832120a-e8cd-4894-b0ca-4ab77d0613e8, rgb(13, 13, 23))" style="user-select: none; width: 100%; height: 100%; display: inline-block; fill: var(--token-f832120a-e8cd-4894-b0ca-4ab77d0613e8, rgb(13, 13, 23)); color: var(--token-f832120a-e8cd-4894-b0ca-4ab77d0613e8, rgb(13, 13, 23)); flex-shrink: 0;" width="256"  height="256" ><g color="var(--token-f832120a-e8cd-4894-b0ca-4ab77d0613e8, rgb(13, 13, 23))" weight="duotone" fill="#0D0D17"><path d="M224,56V96H32V56a8,8,0,0,1,8-8H216A8,8,0,0,1,224,56Z" opacity="0.2" fill="#0D0D17"></path><path d="M216,40H40A16,16,0,0,0,24,56V200a16,16,0,0,0,16,16H216a16,16,0,0,0,16-16V56A16,16,0,0,0,216,40Zm0,16V88H40V56Zm0,144H40V104H216v96Z" fill="#0D0D17"></path></g></svg>